<svg width="169" height="50" viewBox="0 0 169 50" fill="none" xmlns="http://www.w3.org/2000/svg">
<path d="M162.105 0.000862798H98.1068C97.8849 0.00345119 97.6631 0.00603958 97.4413 0.0120792C96.9588 0.0250211 96.4703 0.0534935 95.9936 0.141499C95.5085 0.229504 95.0573 0.374454 94.617 0.60137C94.1844 0.824835 93.7882 1.11646 93.4445 1.46417C93.1016 1.8136 92.8129 2.2148 92.5928 2.65483C92.3693 3.1009 92.2262 3.55818 92.1399 4.05084C92.0535 4.53487 92.0256 5.02925 92.0129 5.51846C92.0061 5.74365 92.0035 5.96884 92.0019 6.19316L92.001 6.99556V43.0053L92.0019 43.8077C92.0035 44.032 92.0061 44.2564 92.012 44.4807C92.0256 44.9707 92.0543 45.4651 92.1399 45.9492C92.2262 46.441 92.3684 46.8991 92.5928 47.346C92.8129 47.7861 93.1008 48.1864 93.4445 48.535C93.7882 48.8835 94.1844 49.176 94.617 49.3978C95.0573 49.6264 95.5085 49.7705 95.9936 49.8594C96.4703 49.9456 96.9588 49.975 97.4413 49.9888C97.6631 49.994 97.8849 49.9974 98.1068 49.9974C98.3692 50 98.6333 50 98.8966 50H162.105C162.368 50 162.632 50 162.894 49.9974C163.116 49.9974 163.338 49.994 163.561 49.9888C164.043 49.975 164.53 49.9456 165.008 49.8594C165.493 49.7705 165.944 49.6264 166.385 49.3986C166.818 49.176 167.213 48.8835 167.557 48.5358C167.9 48.1864 168.187 47.7852 168.408 47.3452C168.633 46.8991 168.775 46.4418 168.861 45.9492C168.948 45.466 168.976 44.9707 168.988 44.4815C168.995 44.2572 168.998 44.032 168.999 43.8068C169.001 43.5394 169.001 43.2728 169.001 43.0053V6.9947C169.001 6.72724 169.001 6.45977 168.999 6.19316C168.998 5.96884 168.995 5.74451 168.989 5.51846C168.976 5.02925 168.948 4.53487 168.862 4.05084C168.775 3.55904 168.634 3.1009 168.408 2.65397C168.188 2.21394 167.9 1.8136 167.557 1.46503C167.213 1.11646 166.818 0.824835 166.385 0.60137C165.945 0.373591 165.493 0.229504 165.008 0.141499C164.53 0.0534935 164.043 0.0250211 163.561 0.0120792C163.338 0.00603958 163.116 0.00345119 162.894 0.0017256C162.632 2.00886e-10 162.368 0 162.105 0" fill="#222222"/>
<path d="M162.105 1.66602L162.883 1.66774C163.093 1.66947 163.304 1.67206 163.516 1.67809C163.884 1.68759 164.316 1.70829 164.718 1.78163C165.066 1.84461 165.36 1.94211 165.641 2.08706C165.918 2.23029 166.172 2.41751 166.394 2.6427C166.617 2.86876 166.802 3.12673 166.945 3.41146C167.087 3.69445 167.182 3.98953 167.245 4.34673C167.316 4.75052 167.337 5.18882 167.347 5.565C167.353 5.77638 167.355 5.98863 167.355 6.20606C167.358 6.46921 167.358 6.7315 167.358 6.99466V43.0052C167.358 43.2684 167.358 43.5316 167.356 43.799C167.355 44.0113 167.353 44.2235 167.346 44.4366C167.337 44.812 167.316 45.2503 167.244 45.6575C167.182 46.0095 167.087 46.3046 166.944 46.5893C166.802 46.874 166.617 47.1311 166.395 47.3563C166.172 47.5824 165.919 47.7696 165.637 47.9137C165.358 48.0587 165.066 48.1553 164.721 48.2183C164.31 48.2925 163.861 48.3132 163.523 48.3218C163.311 48.327 163.099 48.3304 162.882 48.3304C162.624 48.333 162.364 48.333 162.105 48.333H98.8865C98.6308 48.333 98.3743 48.333 98.1144 48.3313C97.9027 48.3304 97.6911 48.327 97.4862 48.3227C97.1399 48.314 96.6904 48.2925 96.284 48.2191C95.9352 48.1553 95.6431 48.0587 95.3604 47.912C95.0818 47.7696 94.8287 47.5824 94.606 47.3555C94.3842 47.1311 94.1997 46.874 94.0574 46.5893C93.9152 46.3055 93.8195 46.0095 93.7569 45.6532C93.6849 45.2459 93.6638 44.8094 93.6544 44.4366C93.6485 44.2235 93.646 44.0095 93.6451 43.7982L93.6443 43.1709V6.20433C93.6468 5.99036 93.6485 5.77725 93.6544 5.56414C93.6646 5.19054 93.6849 4.75397 93.7577 4.34328C93.8195 3.99126 93.9152 3.69445 94.0583 3.40887C94.1997 3.12673 94.3842 2.86876 94.6069 2.64357C94.8287 2.41751 95.0827 2.23115 95.3629 2.0862C95.6423 1.94211 95.9352 1.84461 96.284 1.78163C96.6862 1.70829 97.1171 1.68759 97.4862 1.67809C97.697 1.67206 97.9078 1.66947 98.1161 1.66774L98.8967 1.66688H162.105" fill="#FFFFFE"/>
<path d="M129.072 26.1548V33.2815H126.879V15.6882H132.697C134.1 15.6614 135.463 16.2093 136.456 17.2197C138.446 19.1273 138.568 22.3395 136.702 24.4016L136.456 24.6544C135.435 25.6501 134.181 26.1557 132.696 26.1557H129.072V26.1548ZM129.072 17.8495V23.9943H132.751C133.569 24.022 134.359 23.6855 134.917 23.0824C136.062 21.8615 136.035 19.8986 134.85 18.7192C134.291 18.1584 133.541 17.8495 132.75 17.8495H129.072H129.072ZM143.093 20.852C144.714 20.852 145.995 21.3007 146.935 22.1842C147.876 23.0686 148.339 24.3024 148.339 25.8597V33.2806H146.241V31.6111H146.145C145.232 32.9864 144.033 33.6732 142.521 33.6732C141.24 33.6732 140.15 33.2806 139.291 32.4955C138.446 31.7656 137.97 30.6853 137.996 29.549C137.996 28.3006 138.46 27.3187 139.373 26.575C140.286 25.8321 141.512 25.4671 143.039 25.4671C144.346 25.4671 145.409 25.7199 146.254 26.1962V25.6777C146.254 24.9063 145.927 24.1764 145.354 23.6717C144.768 23.1385 144.019 22.8434 143.243 22.8434C142.016 22.8434 141.049 23.3766 140.341 24.443L138.405 23.1945C139.441 21.6372 141.008 20.852 143.093 20.852ZM140.258 29.5913C140.258 30.1806 140.53 30.7276 140.98 31.0641C141.471 31.4567 142.07 31.6681 142.683 31.6534C143.609 31.6534 144.495 31.2746 145.149 30.6008C145.872 29.9002 146.24 29.0719 146.24 28.1185C145.558 27.5577 144.604 27.2764 143.378 27.2902C142.493 27.2902 141.743 27.5146 141.143 27.9503C140.557 28.3851 140.258 28.9321 140.258 29.5913ZM160.384 21.2446L153.053 38.5696H150.791L153.517 32.5093L148.707 21.2446H151.091L154.565 29.8855H154.607L157.999 21.2446H160.384Z" fill="#5F6368"/>
<path d="M120.202 24.6115C120.202 23.9239 120.147 23.2371 120.038 22.5632H110.787V26.4493H116.088C115.869 27.6977 115.162 28.8202 114.125 29.5208V32.0462H117.287C119.141 30.293 120.203 27.6977 120.203 24.6115H120.202Z" fill="#4285F4"/>
<path d="M110.787 34.487C113.43 34.487 115.665 33.5897 117.286 32.0462L114.125 29.5216C113.239 30.1385 112.108 30.4888 110.786 30.4888C108.225 30.4888 106.058 28.708 105.282 26.3232H102.025V28.9323C103.688 32.3404 107.08 34.487 110.787 34.487Z" fill="#34A853"/>
<path d="M105.282 26.3232C104.873 25.0748 104.873 23.7133 105.282 22.451V19.8557H102.025C100.621 22.7029 100.621 26.0704 102.025 28.9177L105.282 26.3232Z" fill="#FBBC04"/>
<path d="M110.787 18.2846C112.19 18.257 113.539 18.804 114.547 19.7997L117.354 16.9102C115.569 15.1984 113.225 14.2588 110.786 14.2872C107.08 14.2872 103.688 16.4468 102.025 19.8557L105.282 22.4648C106.058 20.0663 108.225 18.2846 110.786 18.2846H110.787Z" fill="#EA4335"/>
<path fill-rule="evenodd" clip-rule="evenodd" d="M70.1058 0H6.89539C6.63283 0 6.36941 0 6.10599 0.0017247C5.88461 0.00344941 5.66324 0.00517411 5.44101 0.0120729C4.95707 0.0250082 4.47056 0.0534658 3.99263 0.141426C3.50783 0.229385 3.05736 0.374261 2.61547 0.601059C2.18387 0.824408 1.78745 1.11588 1.44338 1.46427C1.10016 1.81353 0.811859 2.21452 0.593057 2.65432C0.36825 3.10015 0.225815 3.55806 0.139152 4.05047C0.0533478 4.53511 0.0241743 5.02923 0.0113036 5.51905C0.0052973 5.74326 0.00272317 5.96833 0.00100708 6.19255V43.8075C0.00272317 44.0317 0.0052973 44.2567 0.0113036 44.4818C0.0241743 44.9716 0.0533478 45.4649 0.14001 45.9495C0.225815 46.4411 0.36825 46.8998 0.593057 47.3465C0.811859 47.7855 1.10016 48.1873 1.44338 48.5349C1.78745 48.8841 2.18387 49.1756 2.61547 49.3989C3.0565 49.6266 3.50783 49.7706 3.99263 49.8594C4.47056 49.9457 4.95707 49.975 5.44101 49.9888C5.66324 49.994 5.88461 49.9966 6.10599 49.9974C6.36941 50 6.63283 50 6.89539 50H70.1058C70.3683 50 70.6326 50 70.8952 49.9983C71.1165 49.9966 71.3379 49.994 71.561 49.9888C72.0432 49.975 72.5306 49.9457 73.0085 49.8594C73.4933 49.7706 73.9447 49.6266 74.3848 49.3989C74.8181 49.1756 75.2128 48.8841 75.5578 48.5349C75.9001 48.1873 76.1876 47.7846 76.409 47.3457C76.6329 46.8998 76.7762 46.4419 76.8612 45.9487C76.9478 45.4658 76.9761 44.9716 76.9899 44.4827C76.9959 44.2567 76.9984 44.0317 76.9993 43.8075C77.001 43.5401 77.001 43.2728 77.001 43.0055V6.9954C77.001 6.72807 77.001 6.46074 76.9993 6.19341C76.9976 5.9692 76.9959 5.74499 76.9899 5.51991C76.9761 5.0301 76.9478 4.53597 76.8612 4.05133C76.7753 3.55979 76.6329 3.10102 76.409 2.65432C76.1876 2.21452 75.9001 1.81439 75.5578 1.46514C75.2128 1.11675 74.8181 0.82527 74.3848 0.601921C73.9447 0.374261 73.4925 0.230248 73.0085 0.141426C72.5306 0.0551905 72.0432 0.0258705 71.561 0.0120729C71.3379 0.00603646 71.1165 0.00344941 70.8952 0.00258705C70.6326 0 70.3683 0 70.1058 0Z" fill="#222222"/>
<path fill-rule="evenodd" clip-rule="evenodd" d="M70.1058 1.66699L70.884 1.66785C71.0934 1.66958 71.3045 1.67217 71.5155 1.6782C71.8845 1.68769 72.3161 1.70839 72.7168 1.78168C73.066 1.84464 73.3595 1.94208 73.6409 2.08696C73.9181 2.23011 74.1729 2.41724 74.3943 2.64231C74.6174 2.86911 74.8027 3.12695 74.9451 3.41153C75.0876 3.69438 75.182 3.9893 75.2455 4.34718C75.3167 4.7499 75.3364 5.18884 75.3467 5.56482C75.3527 5.7761 75.3553 5.9891 75.3561 6.20641C75.3579 6.46943 75.3579 6.73158 75.3579 6.9946V43.0064C75.3579 43.2686 75.3579 43.5316 75.3561 43.7998C75.3553 44.0119 75.3527 44.224 75.3476 44.4362C75.3364 44.8122 75.3167 45.2502 75.2446 45.6573C75.182 46.01 75.0876 46.3058 74.9443 46.5895C74.8018 46.874 74.6174 47.1319 74.3951 47.357C74.172 47.5829 73.9189 47.77 73.6383 47.914C73.3586 48.0589 73.066 48.1555 72.7202 48.2185C72.3101 48.2926 71.8622 48.3133 71.5241 48.3219C71.3113 48.3271 71.0994 48.3306 70.8823 48.3306C70.6232 48.3331 70.3649 48.3331 70.1058 48.3331H6.88596C6.63026 48.3331 6.37371 48.3331 6.11372 48.3314C5.90178 48.3306 5.6907 48.328 5.48477 48.3228C5.13984 48.3133 4.68937 48.2926 4.28351 48.2193C3.93429 48.1555 3.64169 48.0589 3.3594 47.9123C3.08139 47.7692 2.82741 47.5829 2.60432 47.3561C2.38294 47.1319 2.19932 46.874 2.05689 46.5895C1.91445 46.3058 1.81835 46.0091 1.75657 45.653C1.68364 45.2459 1.6639 44.8104 1.65361 44.437C1.64846 44.2232 1.64503 44.0102 1.64417 43.7972L1.64331 43.1711V6.20382C1.64503 5.99082 1.64846 5.77782 1.65361 5.56396C1.6639 5.19056 1.68364 4.75335 1.75657 4.34373C1.81835 3.99017 1.91445 3.69438 2.05689 3.40894C2.19847 3.12695 2.38294 2.86911 2.60604 2.64317C2.82741 2.4181 3.08139 2.23097 3.36111 2.08696C3.64084 1.94208 3.93429 1.8455 4.28351 1.78168C4.68508 1.70839 5.11581 1.68769 5.48649 1.6782C5.69585 1.67217 5.90693 1.66958 6.11544 1.66785L6.89625 1.66699H70.1058Z" fill="#FFFFFE"/>
<path fill-rule="evenodd" clip-rule="evenodd" d="M20.2414 16.8778C20.8935 16.0499 21.3363 14.9375 21.2196 13.8018C20.2637 13.8492 19.0976 14.4408 18.4223 15.2695C17.8166 15.9792 17.2803 17.1382 17.4202 18.2265C18.4927 18.3213 19.5644 17.6832 20.2405 16.8778H20.2414ZM21.2067 18.4395C19.6493 18.3446 18.3245 19.3363 17.5806 19.3363C16.8367 19.3363 15.6981 18.4869 14.4659 18.5093C12.8614 18.5335 11.3735 19.4527 10.5601 20.9153C8.8869 23.8421 10.1182 28.1823 11.7459 30.565C12.5362 31.7447 13.4886 33.0425 14.7439 32.9968C15.9306 32.9494 16.3948 32.2173 17.8363 32.2173C19.2778 32.2173 19.6965 32.996 20.951 32.9727C22.2535 32.9494 23.0678 31.793 23.8581 30.6133C24.7641 29.268 25.1365 27.9711 25.1588 27.8995C25.1357 27.8762 22.6491 26.9078 22.6259 24.0068C22.6019 21.5767 24.578 20.4212 24.6706 20.3487C23.5552 18.6758 21.8116 18.4861 21.2067 18.4395ZM32.9061 24.4975H36.0122C38.371 24.4975 39.713 23.2092 39.713 20.9774C39.713 18.7448 38.371 17.4693 36.0251 17.4693H32.9053V24.4975H32.9061ZM36.739 15.1513C40.1248 15.1513 42.4828 17.5185 42.4828 20.9645C42.4828 24.4233 40.0759 26.8026 36.6541 26.8026H32.9061V32.8494H30.1973V15.1513H36.7399H36.739ZM51.3772 28.0418V27.0483L48.3655 27.2441C46.6734 27.3545 45.7905 27.9926 45.7905 29.1085C45.7905 30.1882 46.7095 30.8875 48.1484 30.8875C49.9872 30.8875 51.3772 29.6975 51.3772 28.0418ZM43.1546 29.1827C43.1546 26.913 44.8595 25.6125 48.0025 25.4168L51.3772 25.2081V24.2276C51.3772 22.7926 50.4463 22.007 48.7894 22.007C47.4225 22.007 46.4315 22.7185 46.2264 23.8102H43.7835C43.8556 21.5164 45.9836 19.8494 48.8632 19.8494C51.9573 19.8494 53.9771 21.4922 53.9771 24.043V32.8494H51.4733V30.728H51.4133C50.6994 32.1138 49.1274 32.9848 47.4234 32.9848C44.9084 32.9848 43.1546 31.4636 43.1546 29.1827ZM56.2784 37.5837V35.4623C56.4474 35.4865 56.8584 35.5115 57.0764 35.5115C58.2733 35.5115 58.9503 34.9966 59.3613 33.6712L59.6033 32.8865L55.0213 20.0081H57.8503L61.0422 30.4572H61.1023L64.2942 20.0081H67.052L62.3001 33.5367C61.2113 36.6394 59.9663 37.6578 57.3303 37.6578C57.1244 37.6578 56.4594 37.6328 56.2784 37.5837Z" fill="#222222"/>
</svg>
