<svg width="177" height="50" viewBox="0 0 177 50" fill="none" xmlns="http://www.w3.org/2000/svg">
<path d="M177 44.9874C177 47.7565 174.721 50 171.903 50H5.10449C2.28653 50 0 47.7565 0 44.9874V5.0178C0 2.25084 2.28653 0 5.10342 0H171.902C174.722 0 177 2.25084 177 5.0178V44.9874Z" fill="black"/>
<path d="M38.8699 24.7247C38.8316 20.5067 42.378 18.4548 42.5399 18.3595C40.5313 15.4763 37.4173 15.0827 36.3236 15.0513C33.709 14.7802 31.1722 16.5913 29.841 16.5913C28.482 16.5913 26.4309 15.0775 24.22 15.1214C21.3743 15.1654 18.714 16.786 17.2539 19.3038C14.241 24.4378 16.4871 31.9818 19.3732 36.1317C20.8173 38.1637 22.5043 40.4334 24.7131 40.3539C26.8729 40.2659 27.6801 38.9981 30.2872 38.9981C32.8698 38.9981 33.6281 40.3539 35.8805 40.3026C38.199 40.2659 39.658 38.2611 41.051 36.2102C42.7199 33.8809 43.3898 31.5871 43.4164 31.4688C43.3621 31.451 38.9136 29.7802 38.8689 24.7247H38.8699ZM34.6153 12.322C35.7772 10.8909 36.5728 8.94578 36.3512 6.97028C34.6707 7.04356 32.5673 8.11559 31.3565 9.51425C30.284 10.7485 29.3276 12.7691 29.5737 14.6681C31.4629 14.8063 33.4023 13.7301 34.6142 12.322H34.6153Z" fill="#FFFFFE"/>
<path d="M70.1327 40.0618H67.1134L65.4606 34.9466H59.7107L58.1345 40.0618H55.1973L60.8928 22.6466H64.4105L70.1337 40.0618H70.1327ZM64.9611 32.8005L63.4658 28.2527C63.3082 27.7879 63.0111 26.6939 62.5744 24.9717H62.5212C62.3465 25.7129 62.0664 26.8069 61.6798 28.2527L60.2112 32.8005H64.9611ZM84.7794 33.6285C84.7794 35.7642 84.1937 37.4518 83.0201 38.6914C81.97 39.7948 80.6665 40.3455 79.1094 40.3455C77.4289 40.3455 76.2212 39.7519 75.4864 38.5636H75.4331V45.178H72.5992V31.6384C72.5992 30.2952 72.563 28.9175 72.4937 27.5042H74.9858L75.1456 29.4943H75.1988C76.1435 27.9952 77.578 27.2466 79.5024 27.2466C81.0073 27.2466 82.2639 27.8308 83.2693 29.0023C84.2768 30.1748 84.7794 31.7169 84.7794 33.6285ZM81.8912 33.7311C81.8912 32.5084 81.6122 31.5012 81.0509 30.7077C80.4386 29.8806 79.6153 29.4671 78.5844 29.4671C77.8847 29.4671 77.2489 29.6974 76.6813 30.1518C76.1126 30.6093 75.7409 31.2071 75.5662 31.9483C75.4789 32.2938 75.4342 32.5764 75.4342 32.7994V34.8932C75.4342 35.8061 75.7196 36.5766 76.2883 37.2069C76.857 37.835 77.5961 38.1491 78.5056 38.1491C79.5727 38.1491 80.4045 37.7439 80.9977 36.9347C81.5941 36.1254 81.8923 35.0576 81.8923 33.7311H81.8912ZM99.4518 33.6285C99.4518 35.7642 98.866 37.4518 97.6914 38.6914C96.6423 39.7948 95.3377 40.3455 93.7818 40.3455C92.1012 40.3455 90.8946 39.7519 90.1608 38.5636H90.1076V45.178H87.2726V31.6384C87.2726 30.2952 87.2374 28.9175 87.1682 27.5042H89.6603L89.819 29.4943H89.8722C90.8158 27.9952 92.2503 27.2466 94.1769 27.2466C95.6807 27.2466 96.9363 27.8308 97.9438 29.0023C98.948 30.1748 99.4518 31.7169 99.4518 33.6285ZM96.5646 33.7311C96.5646 32.5084 96.2834 31.5012 95.7233 30.7077C95.1098 29.8806 94.2898 29.4671 93.2568 29.4671C92.556 29.4671 91.9223 29.6974 91.3526 30.1518C90.7838 30.6093 90.4132 31.2071 90.2386 31.9483C90.1534 32.2938 90.1076 32.5764 90.1076 32.7994V34.8932C90.1076 35.8061 90.3919 36.5766 90.9585 37.2069C91.5272 37.835 92.2663 38.1491 93.1779 38.1491C94.2461 38.1491 95.0768 37.7439 95.67 36.9347C96.2664 36.1254 96.5646 35.0576 96.5646 33.7311ZM115.857 35.178C115.857 36.6593 115.335 37.8643 114.285 38.795C113.133 39.8115 111.528 40.3193 109.466 40.3193C107.563 40.3193 106.037 39.9581 104.881 39.2347L105.538 36.9095C106.782 37.6497 108.147 38.0213 109.635 38.0213C110.702 38.0213 111.533 37.7837 112.13 37.3095C112.725 36.8363 113.021 36.1997 113.021 35.4072C113.021 34.7006 112.776 34.1049 112.286 33.6223C111.798 33.1396 110.983 32.6905 109.845 32.276C106.748 31.138 105.201 29.4724 105.201 27.2822C105.201 25.8501 105.743 24.6755 106.829 23.7626C107.911 22.8486 109.354 22.3911 111.16 22.3911C112.769 22.3911 114.107 22.6675 115.175 23.2182L114.466 25.4931C113.469 24.9592 112.341 24.6922 111.079 24.6922C110.084 24.6922 109.304 24.934 108.746 25.4156C108.274 25.8459 108.037 26.3714 108.037 26.9922C108.037 27.6811 108.307 28.2506 108.849 28.6976C109.321 29.1112 110.178 29.5582 111.423 30.0419C112.946 30.6449 114.063 31.3505 114.782 32.1587C115.499 32.9648 115.857 33.974 115.857 35.178ZM125.228 29.598H122.104V35.6951C122.104 37.2456 122.654 38.0203 123.757 38.0203C124.264 38.0203 124.683 37.9774 125.016 37.8905L125.095 40.0094C124.537 40.2146 123.802 40.3182 122.89 40.3182C121.772 40.3182 120.896 39.9822 120.265 39.3111C119.637 38.638 119.32 37.5105 119.32 35.9255V29.5959H117.459V27.5021H119.32V25.202L122.104 24.375V27.5021H125.228V29.598ZM139.324 33.6798C139.324 35.6093 138.763 37.1943 137.643 38.4338C136.469 39.71 134.911 40.3455 132.968 40.3455C131.097 40.3455 129.607 39.7341 128.495 38.5123C127.384 37.2896 126.828 35.7475 126.828 33.8871C126.828 31.942 127.4 30.3486 128.547 29.1091C129.691 27.8675 131.235 27.2477 133.179 27.2477C135.051 27.2477 136.557 27.8591 137.694 29.0829C138.781 30.269 139.324 31.8017 139.324 33.6788V33.6798ZM136.382 33.7699C136.382 32.612 136.131 31.6185 135.622 30.7904C135.028 29.7875 134.179 29.2881 133.078 29.2881C131.938 29.2881 131.073 29.7885 130.479 30.7904C129.97 31.6195 129.719 32.6288 129.719 33.8222C129.719 34.9801 129.97 35.9736 130.479 36.8007C131.092 37.8025 131.949 38.303 133.052 38.303C134.134 38.303 134.984 37.7931 135.597 36.7745C136.119 35.9307 136.382 34.9267 136.382 33.7699ZM148.536 29.9581C148.256 29.9068 147.957 29.8806 147.643 29.8806C146.646 29.8806 145.875 30.2512 145.331 30.9925C144.861 31.6468 144.623 32.4738 144.623 33.4736V40.0618H141.79L141.817 31.4594C141.817 30.0115 141.782 28.6935 141.711 27.5052H144.18L144.284 29.9079H144.362C144.661 29.0829 145.133 28.4181 145.779 27.9188C146.41 27.4707 147.093 27.2466 147.828 27.2466C148.09 27.2466 148.326 27.2644 148.536 27.2969V29.9592V29.9581ZM161.213 33.1889C161.213 33.6893 161.179 34.1101 161.108 34.4546H152.605C152.638 35.6951 153.049 36.6436 153.84 37.2979C154.555 37.8832 155.482 38.1763 156.62 38.1763C157.879 38.1763 159.027 37.9784 160.06 37.5816L160.504 39.5184C159.298 40.0366 157.873 40.2942 156.228 40.2942C154.25 40.2942 152.697 39.7215 151.567 38.5773C150.44 37.4309 149.875 35.894 149.875 33.9646C149.875 32.0718 150.4 30.4941 151.451 29.2368C152.552 27.8947 154.04 27.2226 155.912 27.2226C157.75 27.2226 159.142 27.8947 160.087 29.2368C160.836 30.3036 161.213 31.6227 161.213 33.1889ZM158.51 32.4654C158.528 31.6384 158.344 30.9234 157.959 30.3203C157.469 29.5446 156.715 29.1572 155.701 29.1572C154.775 29.1572 154.02 29.5352 153.443 30.2942C152.973 30.8972 152.692 31.6216 152.605 32.4644H158.51V32.4654Z" fill="#FFFFFE"/>
<path d="M64.0239 11.9326C64.0239 13.4725 63.5553 14.6325 62.6181 15.4114C61.7491 16.1296 60.5158 16.4897 58.9173 16.4897C58.1249 16.4897 57.4476 16.4552 56.88 16.3871V7.97108C57.6201 7.85383 58.4178 7.79311 59.2794 7.79311C60.8023 7.79311 61.9493 8.11974 62.7225 8.77092C63.5894 9.50794 64.0239 10.5611 64.0239 11.9326ZM62.5542 11.9713C62.5542 10.9725 62.2869 10.2062 61.7491 9.6723C61.2123 9.14047 60.4285 8.87351 59.3955 8.87351C58.9567 8.87351 58.5829 8.90178 58.273 8.9625V15.3601C58.4444 15.3863 58.7586 15.3978 59.2144 15.3978C60.2805 15.3978 61.1037 15.1068 61.6831 14.5226C62.2624 13.9384 62.5553 13.0883 62.5553 11.9702L62.5542 11.9713ZM71.8132 13.2778C71.8132 14.2263 71.5374 15.0042 70.9879 15.6135C70.4107 16.2416 69.646 16.5536 68.6918 16.5536C67.7716 16.5536 67.0389 16.2542 66.4926 15.6522C65.9473 15.0513 65.6746 14.2933 65.6746 13.3804C65.6746 12.4246 65.9558 11.6405 66.5192 11.0322C67.0836 10.424 67.8408 10.1193 68.7951 10.1193C69.7152 10.1193 70.4543 10.4187 71.0145 11.0197C71.5459 11.6028 71.8132 12.3566 71.8132 13.2778ZM70.3681 13.3228C70.3681 12.7533 70.2434 12.2655 69.9953 11.8582C69.7024 11.3662 69.286 11.1202 68.745 11.1202C68.1848 11.1202 67.7599 11.3662 67.467 11.8582C67.2178 12.2655 67.0943 12.7607 67.0943 13.3469C67.0943 13.9164 67.2189 14.4043 67.467 14.8126C67.7695 15.3046 68.1891 15.5496 68.7312 15.5496C69.2637 15.5496 69.6811 15.2994 69.9815 14.799C70.2392 14.3844 70.3681 13.8924 70.3681 13.3228ZM82.2565 10.245L80.2969 16.4133H79.019L78.2074 13.7343C78.0019 13.0664 77.8347 12.4016 77.7037 11.742H77.6781C77.5578 12.4194 77.3906 13.0831 77.1744 13.7353L76.3118 16.4133H75.021L73.1775 10.246H74.6088L75.3171 13.1784C75.4885 13.8714 75.6302 14.5331 75.743 15.1581H75.7675C75.8719 14.643 76.0434 13.9855 76.2851 13.192L77.1744 10.246H78.3097L79.1617 13.1271C79.3683 13.8306 79.5355 14.5069 79.6643 15.1581H79.7027C79.7975 14.5236 79.9402 13.8473 80.1287 13.1271L80.8891 10.246H82.2565V10.245ZM89.4793 16.4133H88.0863V12.88C88.0863 11.7912 87.6667 11.2468 86.8232 11.2468C86.41 11.2468 86.0766 11.3965 85.8168 11.696C85.5612 11.9954 85.4302 12.3492 85.4302 12.7533V16.4122H84.0372V12.0079C84.0372 11.4656 84.0201 10.8773 83.9861 10.2418H85.2108L85.2758 11.206H85.3141C85.477 10.9066 85.7188 10.6595 86.0362 10.4627C86.4142 10.2324 86.837 10.1151 87.2992 10.1151C87.885 10.1151 88.3706 10.3015 88.7583 10.6742C89.2386 11.1306 89.4793 11.8122 89.4793 12.7177V16.4133ZM93.3217 16.4133H91.9298V7.41413H93.3217V16.4133ZM101.524 13.2778C101.524 14.2263 101.248 15.0042 100.699 15.6135C100.122 16.2416 99.356 16.5536 98.4028 16.5536C97.4816 16.5536 96.7489 16.2542 96.2036 15.6522C95.6583 15.0513 95.3857 14.2933 95.3857 13.3804C95.3857 12.4246 95.6668 11.6405 96.2302 11.0322C96.7947 10.424 97.5508 10.1193 98.505 10.1193C99.4263 10.1193 100.164 10.4187 100.726 11.0197C101.257 11.6028 101.524 12.3566 101.524 13.2778ZM100.078 13.3228C100.078 12.7533 99.9524 12.2655 99.7042 11.8582C99.4124 11.3662 98.996 11.1202 98.4561 11.1202C97.8948 11.1202 97.4688 11.3662 97.1781 11.8582C96.9278 12.2655 96.8053 12.7607 96.8053 13.3469C96.8053 13.9164 96.9299 14.4043 97.1781 14.8126C97.4795 15.3046 97.9001 15.5496 98.4422 15.5496C98.9747 15.5496 99.39 15.2994 99.6904 14.799C99.9502 14.3844 100.078 13.8924 100.078 13.3228ZM108.267 16.4133H107.015L106.912 15.7035H106.874C106.446 16.2688 105.835 16.5536 105.043 16.5536C104.451 16.5536 103.973 16.3662 103.613 15.9945C103.286 15.6574 103.123 15.2376 103.123 14.7383C103.123 13.9845 103.441 13.4108 104.083 13.013C104.724 12.6151 105.626 12.4194 106.785 12.4288V12.3136C106.785 11.5012 106.353 11.095 105.484 11.095C104.866 11.095 104.321 11.2479 103.85 11.5515L103.567 10.6512C104.149 10.2973 104.868 10.1193 105.717 10.1193C107.355 10.1193 108.177 10.9694 108.177 12.6706V14.9424C108.177 15.559 108.207 16.05 108.267 16.4133ZM106.82 14.2933V13.3417C105.284 13.3155 104.515 13.7311 104.515 14.5854C104.515 14.9079 104.603 15.1476 104.782 15.3088C104.962 15.47 105.191 15.5496 105.464 15.5496C105.769 15.5496 106.055 15.4543 106.316 15.2648C106.577 15.0733 106.738 14.8314 106.798 14.5341C106.812 14.4671 106.819 14.3865 106.819 14.2933H106.82ZM116.184 16.4133H114.947L114.882 15.4229H114.843C114.449 16.1767 113.776 16.5536 112.83 16.5536C112.075 16.5536 111.447 16.2615 110.948 15.6784C110.45 15.0942 110.201 14.3362 110.201 13.4066C110.201 12.4079 110.471 11.5996 111.013 10.982C111.538 10.4062 112.182 10.1183 112.947 10.1183C113.789 10.1183 114.378 10.3968 114.713 10.9558H114.74V7.41309H116.135V14.7508C116.135 15.3517 116.15 15.9045 116.184 16.4122V16.4133ZM114.74 13.8117V12.7837C114.74 12.6057 114.726 12.4612 114.701 12.3513C114.623 12.0215 114.454 11.7441 114.198 11.5211C113.938 11.2971 113.626 11.184 113.266 11.184C112.746 11.184 112.339 11.3871 112.04 11.7944C111.743 12.2016 111.593 12.7209 111.593 13.3553C111.593 13.9646 111.735 14.4598 112.021 14.8408C112.323 15.246 112.73 15.4491 113.239 15.4491C113.697 15.4491 114.061 15.2805 114.339 14.9414C114.608 14.6283 114.74 14.2514 114.74 13.8117ZM128.099 13.2778C128.099 14.2263 127.824 15.0042 127.274 15.6135C126.696 16.2416 125.934 16.5536 124.977 16.5536C124.058 16.5536 123.327 16.2542 122.778 15.6522C122.234 15.0513 121.961 14.2933 121.961 13.3804C121.961 12.4246 122.242 11.6405 122.805 11.0322C123.369 10.424 124.127 10.1193 125.083 10.1193C126.001 10.1193 126.741 10.4187 127.3 11.0197C127.833 11.6028 128.099 12.3566 128.099 13.2778ZM126.655 13.3228C126.655 12.7533 126.53 12.2655 126.282 11.8582C125.988 11.3662 125.573 11.1202 125.031 11.1202C124.473 11.1202 124.047 11.3662 123.753 11.8582C123.504 12.2655 123.38 12.7607 123.38 13.3469C123.38 13.9164 123.505 14.4043 123.753 14.8126C124.055 15.3046 124.475 15.5496 125.017 15.5496C125.549 15.5496 125.968 15.2994 126.268 14.799C126.525 14.3844 126.655 13.8924 126.655 13.3228ZM135.59 16.4133H134.198V12.88C134.198 11.7912 133.779 11.2468 132.934 11.2468C132.521 11.2468 132.186 11.3965 131.929 11.696C131.671 11.9954 131.542 12.3492 131.542 12.7533V16.4122H130.147V12.0079C130.147 11.4656 130.132 10.8773 130.098 10.2418H131.322L131.387 11.206H131.425C131.589 10.9066 131.83 10.6595 132.147 10.4627C132.526 10.2324 132.947 10.1151 133.411 10.1151C133.995 10.1151 134.481 10.3015 134.868 10.6742C135.35 11.1306 135.59 11.8122 135.59 12.7177V16.4133ZM144.966 11.272H143.433V14.2682C143.433 15.0303 143.705 15.4114 144.244 15.4114C144.494 15.4114 144.702 15.3905 144.865 15.3475L144.901 16.3871C144.626 16.4897 144.264 16.54 143.819 16.54C143.269 16.54 142.841 16.3756 142.531 16.0458C142.22 15.7161 142.065 15.1612 142.065 14.3823V11.272H141.149V10.245H142.065V9.1143L143.431 8.7081V10.2429H144.965V11.272H144.966ZM152.341 16.4133H150.947V12.9062C150.947 11.8006 150.528 11.2468 149.686 11.2468C149.04 11.2468 148.599 11.5672 148.356 12.2089C148.316 12.344 148.292 12.5084 148.292 12.702V16.4122H146.899V7.41413H148.291V11.1317H148.318C148.757 10.4554 149.386 10.1172 150.201 10.1172C150.777 10.1172 151.255 10.3036 151.633 10.6763C152.106 11.1411 152.342 11.8321 152.342 12.745V16.4133H152.341ZM159.951 13.037C159.951 13.2831 159.931 13.4903 159.898 13.6589H155.72C155.739 14.2682 155.938 14.733 156.325 15.0555C156.679 15.3434 157.135 15.4868 157.693 15.4868C158.311 15.4868 158.875 15.3905 159.383 15.1947L159.6 16.1474C159.006 16.4018 158.307 16.5285 157.498 16.5285C156.527 16.5285 155.762 16.2479 155.209 15.6847C154.653 15.1214 154.379 14.3666 154.379 13.4192C154.379 12.4895 154.635 11.7148 155.153 11.0971C155.692 10.4376 156.422 10.1068 157.344 10.1068C158.245 10.1068 158.929 10.4376 159.391 11.0971C159.765 11.6206 159.951 12.2676 159.951 13.037ZM158.62 12.6832C158.631 12.2749 158.54 11.9252 158.351 11.629C158.109 11.2479 157.741 11.0573 157.242 11.0573C156.788 11.0573 156.417 11.2437 156.134 11.6164C155.903 11.9137 155.765 12.2676 155.72 12.6832H158.62Z" fill="#FFFFFE"/>
</svg>
