<svg width="169" height="50" viewBox="0 0 169 50" fill="none" xmlns="http://www.w3.org/2000/svg">
<path d="M162.738 50H6.26089C2.81156 50 0 47.182 0 43.75V6.25C0 2.805 2.81056 0 6.26188 0H162.739C166.186 0 169 2.805 169 6.25V43.75C169 47.182 166.186 50 162.738 50Z" fill="black"/>
<path d="M89.0298 16.54C87.9019 16.54 86.9498 16.144 86.1972 15.365C85.4517 14.607 85.0345 13.563 85.0534 12.497C85.0534 11.359 85.4387 10.396 86.1972 9.63197C86.9468 8.85197 87.8979 8.45697 89.0268 8.45697C90.1426 8.45697 91.0948 8.85297 91.8593 9.63197C92.6178 10.421 93.0031 11.384 93.0031 12.497C92.9911 13.637 92.6048 14.601 91.8593 15.362C91.1107 16.147 90.1586 16.54 89.0298 16.54ZM55.4497 16.54C54.3459 16.54 53.3877 16.15 52.6052 15.38C51.8267 14.613 51.4325 13.644 51.4325 12.5C51.4325 11.356 51.8277 10.387 52.6042 9.61997C53.3727 8.84997 54.3309 8.45997 55.4487 8.45997C55.9967 8.45997 56.5286 8.56997 57.0376 8.78997C57.5387 9.00597 57.9459 9.29897 58.2473 9.65697L58.3222 9.74697L57.4798 10.577L57.393 10.474C56.9169 9.90597 56.2791 9.62897 55.4367 9.62897C54.6842 9.62897 54.0295 9.89697 53.4875 10.427C52.9436 10.96 52.6671 11.658 52.6671 12.503C52.6671 13.348 52.9436 14.046 53.4875 14.579C54.0285 15.109 54.6852 15.377 55.4367 15.377C56.2392 15.377 56.9139 15.109 57.4389 14.579C57.7503 14.267 57.9429 13.831 58.0108 13.279H55.309V12.113H59.1715L59.1865 12.219C59.2144 12.416 59.2424 12.619 59.2424 12.805C59.2424 13.881 58.919 14.751 58.2782 15.393C57.5507 16.153 56.5995 16.54 55.4497 16.54ZM100.098 16.375H98.9076L95.2607 10.524L95.2906 11.577V16.372H94.1009V8.62497H95.4593L95.4962 8.68497L98.9256 14.195L98.8957 13.145V8.62497H100.098V16.375ZM80.0821 16.375H78.8754V9.78997H76.7834V8.62497H82.171V9.79097H80.0791V16.375H80.0821ZM75.8003 16.375H74.5977V8.62497H75.8013V16.375H75.8003ZM69.0384 16.375H67.8358V9.78997H65.7438V8.62497H71.1314V9.79097H69.0384V16.375ZM64.9813 16.362H60.3682V8.62497H64.9813V9.79097H61.5739V11.917H64.6489V13.07H61.5749V15.196H64.9813V16.362ZM87.0805 14.564C87.6185 15.103 88.2712 15.374 89.0298 15.374C89.8102 15.374 90.447 15.109 90.979 14.564C91.5079 14.034 91.7754 13.339 91.7754 12.5C91.7754 11.661 91.5079 10.963 90.982 10.436C90.444 9.89697 89.7883 9.62597 89.0327 9.62597C88.2523 9.62597 87.6155 9.89097 87.0865 10.436C86.5575 10.966 86.291 11.661 86.291 12.5C86.291 13.339 86.5555 14.037 87.0805 14.564Z" fill="#FFFFFE"/>
<path fill-rule="evenodd" clip-rule="evenodd" d="M84.9416 27.195C82.0033 27.195 79.6219 29.43 79.6219 32.512C79.6219 35.567 82.0193 37.83 84.9416 37.83C87.8799 37.83 90.2613 35.58 90.2613 32.512C90.2613 29.43 87.8799 27.195 84.9416 27.195ZM84.9416 35.723C83.3347 35.723 81.9504 34.389 81.9504 32.5C81.9504 30.583 83.3377 29.277 84.9416 29.277C86.5485 29.277 87.9328 30.583 87.9328 32.5C87.9358 34.401 86.5485 35.723 84.9416 35.723ZM73.3351 27.195C70.3978 27.195 68.0154 29.43 68.0154 32.512C68.0154 35.567 70.4127 37.83 73.3351 37.83C76.2734 37.83 78.6548 35.58 78.6548 32.512C78.6548 29.43 76.2704 27.195 73.3351 27.195ZM73.3351 35.723C71.7282 35.723 70.3449 34.389 70.3449 32.5C70.3449 30.583 71.7322 29.277 73.3351 29.277C74.942 29.277 76.3263 30.583 76.3263 32.5C76.3263 34.401 74.943 35.723 73.3351 35.723ZM59.5248 28.82V31.07H64.9134C64.7487 32.333 64.3315 33.265 63.6947 33.904C62.9053 34.696 61.6856 35.556 59.5378 35.556C56.2262 35.556 53.6372 32.876 53.6372 29.556C53.6372 26.236 56.2262 23.555 59.5378 23.555C61.3253 23.555 62.6278 24.262 63.5949 25.166L65.1869 23.57C63.8435 22.28 62.0559 21.292 59.5498 21.292C55.0085 21.292 51.1959 25.001 51.1959 29.542C51.1959 34.097 55.0046 37.794 59.5498 37.794C62.003 37.794 63.8435 36.99 65.2986 35.474C66.7818 33.988 67.2509 31.89 67.2509 30.197C67.2509 29.671 67.2109 29.197 67.1271 28.795H59.5218C59.5248 28.792 59.5248 28.82 59.5248 28.82ZM116.014 30.571C115.568 29.378 114.225 27.183 111.47 27.183C108.741 27.183 106.472 29.337 106.472 32.501C106.472 35.487 108.717 37.819 111.735 37.819C114.16 37.819 115.571 36.332 116.153 35.459L114.353 34.249C113.756 35.139 112.925 35.721 111.748 35.721C110.557 35.721 109.724 35.179 109.17 34.109L116.262 31.164C116.262 31.167 116.013 30.571 116.013 30.571H116.014ZM108.782 32.348C108.726 30.294 110.373 29.25 111.551 29.25C112.481 29.25 113.256 29.708 113.519 30.375L108.782 32.348ZM103.021 37.5H105.349V21.877H103.021V37.5ZM99.1961 28.376H99.1122C98.5872 27.749 97.5892 27.182 96.3146 27.182C93.6687 27.182 91.2315 29.517 91.2315 32.516C91.2315 35.502 93.6568 37.809 96.3146 37.809C97.5732 37.809 98.5872 37.239 99.1122 36.599H99.1961V37.363C99.1961 39.393 98.1141 40.486 96.3705 40.486C94.9433 40.486 94.057 39.458 93.6957 38.597L91.6726 39.445C92.2535 40.848 93.8055 42.585 96.3675 42.585C99.0972 42.585 101.41 40.973 101.41 37.042V27.5H99.209V28.376H99.1961ZM96.5222 35.723C94.9153 35.723 93.5719 34.377 93.5719 32.516C93.5719 30.639 94.9153 29.28 96.5222 29.28C98.1141 29.28 99.3488 30.655 99.3488 32.516C99.3647 34.376 98.1171 35.723 96.5222 35.723ZM126.916 21.877H121.348V37.5H123.677V31.584H126.92C129.496 31.584 132.031 29.71 132.031 26.736C132.031 23.762 129.505 21.876 126.916 21.876V21.877ZM126.985 29.401H123.674V24.04H126.985C128.729 24.04 129.715 25.483 129.715 26.72C129.715 27.946 128.717 29.401 126.985 29.401ZM141.364 27.166C139.673 27.166 137.928 27.918 137.208 29.554L139.272 30.414C139.717 29.554 140.531 29.261 141.392 29.261C142.598 29.261 143.818 29.984 143.845 31.275V31.44C143.428 31.203 142.514 30.842 141.419 30.842C139.191 30.842 136.931 32.064 136.931 34.355C136.931 36.453 138.758 37.799 140.796 37.799C142.359 37.799 143.221 37.092 143.758 36.272H143.842V37.482H146.087V31.496C146.087 28.709 144.021 27.166 141.364 27.166ZM141.072 35.723C140.311 35.723 139.244 35.349 139.244 34.389C139.244 33.179 140.574 32.721 141.709 32.721C142.735 32.721 143.22 32.943 143.83 33.248C143.662 34.651 142.48 35.711 141.072 35.723ZM154.276 27.5L151.602 34.277H151.518L148.748 27.5H146.242L150.399 36.973L148.03 42.238H150.455L156.851 27.5H154.275H154.276ZM133.315 37.5H135.644V21.877H133.315V37.5Z" fill="#FFFFFE"/>
<path fill-rule="evenodd" clip-rule="evenodd" d="M13.0079 9.41697C12.6476 9.80697 12.439 10.402 12.439 11.181V38.821C12.439 39.601 12.6476 40.196 13.0208 40.571L13.1167 40.655L28.5628 25.168V24.822L13.1047 9.33197L13.0079 9.41697Z" fill="url(#paint0_linear_1_72)"/>
<path fill-rule="evenodd" clip-rule="evenodd" d="M33.7018 30.346L28.5497 25.181V24.819L33.7018 19.654L33.8136 19.723L39.9078 23.195C41.6514 24.18 41.6514 25.807 39.9078 26.805L33.8136 30.277L33.7018 30.346Z" fill="url(#paint1_linear_1_72)"/>
<path fill-rule="evenodd" clip-rule="evenodd" d="M33.8146 30.277L28.5488 25L13.0079 40.583C13.5768 41.193 14.5319 41.263 15.5979 40.667L33.8136 30.277" fill="url(#paint2_linear_1_72)"/>
<path fill-rule="evenodd" clip-rule="evenodd" d="M33.8146 19.723L15.5968 9.34901C14.5309 8.73801 13.5727 8.82201 13.0068 9.43301L28.5498 25L33.8136 19.723H33.8146Z" fill="url(#paint3_linear_1_72)"/>
<path opacity="0.2" d="M33.7018 30.165L15.6108 40.471C14.5998 41.054 13.6985 41.013 13.1166 40.483L13.0208 40.58L13.1166 40.664C13.6985 41.191 14.5998 41.234 15.6108 40.651L33.8256 30.277L33.7018 30.165Z" fill="black"/>
<path opacity="0.12" d="M39.9078 26.624L33.6858 30.165L33.7986 30.277L39.8918 26.805C40.7651 26.306 41.1943 25.651 41.1943 25C41.1414 25.599 40.6972 26.166 39.9068 26.624H39.9078Z" fill="black"/>
<path opacity="0.25" fill-rule="evenodd" clip-rule="evenodd" d="M15.5979 9.52999L39.9078 23.376C40.6963 23.822 41.1414 24.405 41.2103 25C41.2103 24.349 40.7811 23.694 39.9078 23.195L15.5979 9.34999C13.8542 8.34899 12.439 9.18399 12.439 11.182V11.363C12.439 9.36199 13.8542 8.54299 15.5979 9.52999Z" fill="#FFFFFE"/>
<defs>
<linearGradient id="paint0_linear_1_72" x1="22.2769" y1="10.8825" x2="9.00099" y2="24.1416" gradientUnits="userSpaceOnUse">
<stop stop-color="#00A0FF"/>
<stop offset="0.00657" stop-color="#00A1FF"/>
<stop offset="0.2601" stop-color="#00BEFF"/>
<stop offset="0.5122" stop-color="#00D2FF"/>
<stop offset="0.7604" stop-color="#00DFFF"/>
<stop offset="1" stop-color="#00E3FF"/>
</linearGradient>
<linearGradient id="paint1_linear_1_72" x1="42.1819" y1="25" x2="12.0144" y2="25" gradientUnits="userSpaceOnUse">
<stop stop-color="#FFE000"/>
<stop offset="0.4087" stop-color="#FFBD00"/>
<stop offset="0.7754" stop-color="#FFA500"/>
<stop offset="1" stop-color="#FF9C00"/>
</linearGradient>
<linearGradient id="paint2_linear_1_72" x1="30.9522" y1="29.9649" x2="8.28562" y2="52.6046" gradientUnits="userSpaceOnUse">
<stop stop-color="#FF3A44"/>
<stop offset="1" stop-color="#C31162"/>
</linearGradient>
<linearGradient id="paint3_linear_1_72" x1="9.09269" y1="7.01658" x2="19.2097" y2="17.1224" gradientUnits="userSpaceOnUse">
<stop stop-color="#32A071"/>
<stop offset="0.0685" stop-color="#2DA771"/>
<stop offset="0.4762" stop-color="#15CF74"/>
<stop offset="0.8009" stop-color="#06E775"/>
<stop offset="1" stop-color="#00F076"/>
</linearGradient>
</defs>
</svg>
