<svg width="18" height="15" viewBox="0 0 18 15" fill="none" xmlns="http://www.w3.org/2000/svg">
<path d="M4.0299 15H0.297321V4.98549H4.0299V15ZM2.1616 3.61942C0.968302 3.61942 0 2.79576 0 1.80134C0 0.80692 0.968302 0 2.1616 0C3.35491 0 4.32321 0.80692 4.32321 1.80134C4.32321 2.79576 3.35491 3.61942 2.1616 3.61942ZM18 15H14.2754V10.125C14.2754 8.96317 14.2473 7.47321 12.3348 7.47321C10.3942 7.47321 10.0969 8.73549 10.0969 10.0413V15H6.36829V4.98549H9.9482V6.35156H10.0004C10.4986 5.56473 11.7161 4.73437 13.5321 4.73437C17.3089 4.73437 18.004 6.80692 18.004 9.49888V15H18Z" fill="#222222"/>
</svg>
