<svg width="169" height="57" viewBox="0 0 169 57" fill="none" xmlns="http://www.w3.org/2000/svg">
<path fill-rule="evenodd" clip-rule="evenodd" d="M61.7607 25.0854C61.9287 21.3363 65.1016 18.4324 68.8447 18.6022L68.9457 18.6072C72.2727 18.4034 75.1345 20.9387 75.3376 24.2692C75.3546 24.5409 75.3526 24.8136 75.3326 25.0854H61.7607ZM68.9347 12.7284C59.9522 12.7284 56.0191 18.76 54.7627 23.8627C54.4176 25.2382 54.2445 26.6517 54.2465 28.0712C54.1985 31.4317 55.2088 34.7222 57.1344 37.4753C60.0512 41.2313 64.5355 43.43 69.2868 43.435C74.1362 43.6118 77.3761 42.7887 79.8538 41.3791C80.349 41.0575 80.5841 40.4571 80.441 39.8857V35.9699C80.441 35.1717 79.9599 34.7951 79.2667 35.2766C76.3659 37.1376 72.9259 37.9667 69.4979 37.6281C65.4587 37.5752 62.0938 34.5134 61.6557 30.4926H81.6144C82.0645 30.4926 82.4306 30.131 82.4376 29.6805C82.7887 24.2143 81.2032 12.7284 68.9347 12.7284ZM20.5609 38.0746H11.7904C10.6651 38.0427 9.57882 37.6601 8.67956 36.9808C7.74129 36.3215 7.19113 35.2386 7.21214 34.0898C7.21214 32.5015 8.28044 29.3289 13.622 29.3289H20.5619L20.5609 38.0746ZM27.0778 25.0384C27.0778 21.0296 26.1865 17.9839 24.259 15.8801C22.3344 13.7763 18.4593 12.7294 14.8663 12.7294C11.2613 12.7154 7.71528 13.6604 4.59339 15.4685C4.39534 15.5864 4.2733 15.8012 4.2773 16.0329L4.54738 20.4533C4.6214 20.8818 5.02952 21.1685 5.45764 21.0926C5.59868 21.0686 5.73072 21.0057 5.83775 20.9118C10.241 18.1966 15.5245 17.6902 18.2133 19.0537C19.7207 19.9228 20.624 21.5571 20.5619 23.2992V23.9446H13.2229C10.065 23.9446 0.390194 25.1203 0.390194 34.0189V34.1138C0.238151 36.8599 1.40248 39.5151 3.52509 41.2603C5.81174 42.8736 8.57653 43.6647 11.3673 43.5059H26.2216C26.7007 43.5059 27.0898 43.1163 27.0898 42.6368V25.0024L27.0778 25.0384ZM100.835 37.5582C97.2068 37.5582 94.5881 34.901 93.4847 31.5975C92.7045 29.3109 92.7045 26.8305 93.4847 24.5439C94.5881 21.2404 97.2068 18.5842 100.835 18.5842C108.947 18.5842 109.217 26.8715 109.217 28.0712C109.217 29.2699 108.947 37.5582 100.835 37.5582ZM115.875 28.0822C115.939 24.7197 114.927 21.4242 112.987 18.6781C107.78 11.9582 98.1181 10.7365 91.4061 15.951C90.3879 16.7422 89.4736 17.6582 88.6824 18.6781C84.7763 24.3381 84.7763 31.8272 88.6824 37.4873C91.5522 41.3012 96.0665 43.5149 100.836 43.448C103.914 43.4579 106.928 42.5489 109.488 40.8377V44.5528C109.488 49.5955 105.085 50.5125 102.266 50.6883C100.328 50.7532 98.3871 50.6473 96.4666 50.3716C95.6924 50.2538 95.1522 50.3716 95.1522 51.2058V55.673C95.1722 56.0956 95.5283 56.4222 95.9494 56.4023C102.489 56.9667 106.894 56.8488 110.205 54.9568C112.523 53.5832 114.246 51.3896 115.03 48.8083C115.615 46.8164 115.896 44.7476 115.863 42.6718V28.0822H115.875ZM137.491 14.4566V17.9839C137.557 18.4863 137.205 18.9478 136.704 19.0158C136.574 19.0328 136.441 19.0218 136.316 18.9838C130.609 17.808 127.099 20.3474 127.099 25.6268V42.6718C127.099 43.1513 126.709 43.5409 126.231 43.5409H121.182C120.702 43.5409 120.313 43.1513 120.313 42.6718V25.2612C120.252 21.9307 121.604 18.7301 124.034 16.4565C126.503 14.04 129.823 12.6964 133.275 12.7174C134.457 12.7204 135.636 12.8303 136.797 13.0471C137.396 13.2469 137.49 13.5995 137.49 14.5055V14.4576L137.491 14.4566ZM38.4891 42.6728C38.4891 43.1523 38.0989 43.5419 37.6198 43.5419H32.5714C32.0912 43.5419 31.7021 43.1523 31.7021 42.6728V1.11668C31.7021 0.640188 32.0842 0.251599 32.5594 0.245605H37.6078C38.0879 0.245605 38.4781 0.635194 38.4781 1.11668V42.6728H38.4891ZM50.3474 42.6728C50.3474 43.1523 49.9573 43.5419 49.4792 43.5419H44.4298C43.9496 43.5419 43.5605 43.1523 43.5605 42.6728V1.11668C43.5605 0.635194 43.9506 0.245605 44.4298 0.245605H49.4792C49.9583 0.245605 50.3474 0.635194 50.3474 1.11668V42.6728ZM161.007 31.6224C159.903 34.926 157.284 37.4992 153.657 37.5821C150.028 37.6651 147.41 34.925 146.318 31.6224C145.538 29.3349 145.538 26.8545 146.318 24.5689C147.422 21.2654 150.04 18.6901 153.657 18.6082C157.273 18.5263 159.903 21.2654 161.007 24.5689C161.783 26.8515 161.783 29.3279 161.007 31.6105V31.6224ZM165.82 18.6901C160.613 11.9712 150.951 10.7505 144.239 15.963C143.222 16.7552 142.307 17.6712 141.516 18.6901C139.589 21.4442 138.579 24.7337 138.628 28.0952C138.579 31.4566 139.589 34.7471 141.516 37.4992C146.724 44.2191 156.386 45.4408 163.097 40.2264C164.115 39.4362 165.03 38.5202 165.82 37.4992C167.746 34.7471 168.757 31.4556 168.709 28.0952C168.757 24.7347 167.746 21.4442 165.82 18.6901Z" fill="#222222"/>
</svg>
