<svg width="56" height="34" viewBox="0 0 56 34" fill="none" xmlns="http://www.w3.org/2000/svg">
<path fill-rule="evenodd" clip-rule="evenodd" d="M20.4289 30.3648H35.5715V3.63382H20.4289V30.3648Z" fill="#EA5C0F"/>
<path fill-rule="evenodd" clip-rule="evenodd" d="M56 16.9996C56 26.3885 48.2525 34 38.6948 34C34.6577 34 30.9441 32.6418 28.0002 30.3648C32.0249 27.2517 34.6102 22.4225 34.6102 16.9996C34.6102 11.5767 32.0249 6.74747 28.0002 3.63464C30.9441 1.35825 34.6577 0 38.6948 0C48.2525 0 56 7.61097 56 16.9996Z" fill="#F79E1B"/>
<path fill-rule="evenodd" clip-rule="evenodd" d="M55.4603 27.6888V26.874H55.2849L55.0831 27.4343L54.881 26.874H54.7056V27.6888H54.8294V27.0741L55.0185 27.604H55.1471L55.3365 27.0731V27.6888H55.4603ZM54.3493 27.6888V27.0128H54.5738V26.8756H54.0015V27.0128H54.2261V27.6888H54.3493Z" fill="#F69F00"/>
<path fill-rule="evenodd" clip-rule="evenodd" d="M21.3901 16.9996C21.3901 11.5767 23.9743 6.74747 27.9998 3.63464C25.0562 1.35825 21.3415 0 17.3046 0C7.74748 0 0 7.61097 0 16.9996C0 26.3885 7.74748 34 17.3046 34C21.3415 34 25.0562 32.6418 27.9998 30.3648C23.9743 27.2517 21.3901 22.4225 21.3901 16.9996Z" fill="#DD0C17"/>
</svg>
