<svg width="192" height="26" viewBox="0 0 192 26" fill="none" xmlns="http://www.w3.org/2000/svg">
<path fill-rule="evenodd" clip-rule="evenodd" d="M162.576 8.87429C162.483 8.76241 162.342 8.69548 162.193 8.69548H159.596C159.36 8.69548 159.153 8.8603 159.106 9.09106L158.904 10.07C158.327 9.55457 157.752 9.22492 156.928 8.90625L156.67 8.79337C156.638 8.78238 156.607 8.7694 156.574 8.76341C153.755 8.14706 150.921 8.99316 148.602 11.1449C147.443 12.2068 146.565 13.4375 145.983 14.7621L149.394 0.96065C149.424 0.850766 149.398 0.730893 149.327 0.640988C149.257 0.551083 149.147 0.498139 149.032 0.498139H145.871C145.761 0.498139 145.661 0.543091 145.59 0.625005L131.836 16.0907C132.318 13.7731 135.021 0.947664 135.021 0.947664C135.021 0.92269 135.028 0.89472 135.028 0.870745C135.028 0.787833 135.001 0.701923 134.944 0.635993C134.874 0.549085 134.765 0.498139 134.654 0.498139H131.163C131.052 0.498139 130.948 0.546088 130.878 0.625005L113.435 20.6938C113.142 17.7719 111.747 14.5902 111.747 14.5902C109.41 9.81829 104.208 8.27292 101.258 11.009L101.238 11.014L100.775 11.3487C102.915 7.94627 108.344 8.09811 111.838 12.1039C111.838 12.1039 113.392 13.9639 114.493 16.731C114.787 15.754 114.967 14.7411 115.022 13.7062C113.202 11.2538 111.151 9.8133 111.151 9.8133C106.736 6.84643 101.451 8.09911 100.27 11.9381L100.254 11.954L100.026 12.4735C100.17 8.45773 104.945 5.88844 109.981 7.61562C109.981 7.61562 112.351 8.4827 114.744 10.4027C114.712 10.2498 114.679 10.097 114.637 9.94316C114.379 8.92923 114.003 7.96725 113.52 7.07119C110.729 5.86747 108.254 5.6437 108.254 5.6437C102.94 5.27609 98.9945 8.98817 99.8988 12.902L99.8918 12.923L99.9518 13.4894C98.0633 9.93916 100.908 5.33802 106.134 4.3221C106.134 4.3221 108.561 3.90254 111.545 4.34507C110.789 3.54891 109.925 2.85165 108.966 2.26227C105.975 2.61191 103.742 3.64381 103.742 3.64381C98.9575 5.96936 97.4031 11.1529 100.151 14.0948L100.154 14.1118L100.491 14.5743C97.075 12.4405 97.23 7.03523 101.247 3.55291C101.247 3.55291 103.125 1.99456 105.919 0.889725C104.766 0.546088 103.571 0.370274 102.366 0.363281C100.031 2.13341 98.6684 4.05638 98.6684 4.05638C95.6906 8.45673 96.9479 13.7192 100.8 14.8979L100.815 14.9099L101.338 15.1427C97.3101 14.9988 94.7303 10.2398 96.4628 5.22315C96.4628 5.22315 97.261 3.05943 99.0215 0.784836C98.0133 1.04556 97.06 1.42616 96.1657 1.90365C95.0284 4.6058 94.8153 6.95831 94.8153 6.95831C94.4452 12.2527 98.1743 16.1836 102.103 15.2855L102.121 15.2905L102.692 15.2276C99.1286 17.1116 94.5062 14.2766 93.492 9.06708C93.492 9.06708 93.0848 6.73954 93.492 3.83961C92.6427 4.64076 91.8995 5.56079 91.2843 6.5887C91.6654 9.44568 92.6397 11.5455 92.6397 11.5455C94.9754 16.3154 100.177 17.8628 103.127 15.1247L103.149 15.1207L103.611 14.787C101.472 18.1884 96.0417 18.0366 92.5497 14.0308C92.5497 14.0308 90.7592 11.8022 89.8229 9.20594C89.8249 9.08407 89.7879 8.96719 89.7109 8.87429C89.6149 8.76241 89.4748 8.69548 89.3228 8.69548H86.729C86.491 8.69548 86.2859 8.8603 86.2359 9.09106C86.2359 9.09106 86.0368 9.39274 85.9458 9.98611C85.3696 9.47266 84.6865 9.17497 84.0633 8.90625L83.7992 8.79337C83.7692 8.78238 83.7362 8.7694 83.7062 8.76341C80.8874 8.14706 78.0546 8.99316 75.7339 11.1449C74.3625 12.4026 73.3782 13.894 72.8191 15.5053L72.771 15.6112L73.8744 9.27786C73.8984 9.13501 73.8584 8.98517 73.7623 8.87229C73.6653 8.76041 73.5243 8.69448 73.3782 8.69548L70.6094 8.69947C70.3674 8.70047 70.1593 8.87229 70.1163 9.11204L67.2555 24.6516C67.2305 24.7975 67.2715 24.9483 67.3655 25.0632C67.4605 25.1741 67.6026 25.239 67.7506 25.239L70.6684 25.246C70.9145 25.246 71.1236 25.0702 71.1636 24.8304L72.2659 18.5071C72.2779 18.5471 72.2879 18.573 72.2879 18.573C72.2779 19.2014 72.3299 19.8387 72.448 20.475C72.8771 22.8515 74.9917 25.0682 77.2713 25.5197C79.2599 25.8783 81.3865 25.3759 83.4851 24.0852C83.4441 24.311 83.3781 24.6516 83.3781 24.6516C83.3721 24.6816 83.3701 24.7116 83.3701 24.7435C83.3701 24.8594 83.4101 24.9733 83.4851 25.0632C83.5791 25.1761 83.7212 25.239 83.8732 25.239L86.448 25.246C86.69 25.246 86.8981 25.0762 86.9421 24.8384L89.2087 12.6083C90.9042 14.6142 93.1219 16.3274 93.1219 16.3274C97.5361 19.2963 102.819 18.0426 104 14.2057L104.018 14.1887L104.247 13.6672C104.103 17.682 99.3256 20.2553 94.2902 18.5251C94.2902 18.5251 92.1186 17.7299 89.8309 15.9758C89.8499 16.0587 89.8669 16.1446 89.8879 16.2295C90.16 17.2794 90.5531 18.2764 91.0623 19.2014C93.723 20.2932 96.0187 20.5 96.0187 20.5C101.33 20.8696 105.276 17.1545 104.374 13.2397L104.381 13.2197L104.318 12.6513C106.209 16.2015 103.363 20.8097 98.1343 21.8186C98.1343 21.8186 95.8506 22.2182 92.9858 21.8316C93.672 22.5508 94.4442 23.1962 95.2975 23.7496C98.2663 23.3909 100.465 22.372 100.465 22.372C105.251 20.0475 106.808 14.863 104.06 11.9241L104.054 11.9021L103.718 11.4426C107.135 13.5753 106.982 18.9806 102.964 22.4639C102.964 22.4639 101.047 24.0493 98.2143 25.1561C98.9945 25.4188 99.7988 25.6046 100.612 25.7115H101.77C104.15 23.9234 105.538 21.9595 105.538 21.9595C108.519 17.5591 107.263 12.2947 103.408 11.1189L103.393 11.1029L102.872 10.8732C106.901 11.018 109.482 15.776 107.748 20.7947C107.748 20.7947 106.882 23.1422 104.962 25.5227C105.116 25.4887 105.264 25.4568 105.417 25.4168C106.392 25.1711 107.308 24.8104 108.159 24.3729C109.349 21.6128 109.57 19.1734 109.57 19.1734C109.943 13.883 106.213 9.94915 102.28 10.8492L102.264 10.8452L101.695 10.9051C105.256 9.02313 109.882 11.8581 110.898 17.0676C110.898 17.0676 111.484 19.4591 111.045 22.2921C110.961 22.7017 110.789 23.2941 110.457 23.9274C110.357 24.1032 110.232 24.311 110.08 24.5527L110.084 24.5457C110.082 24.5527 110.076 24.5577 110.072 24.5657C110.068 24.5727 110.068 24.5737 110.068 24.5797C110.008 24.6806 109.996 24.8075 110.048 24.9193C110.106 25.0532 110.24 25.1381 110.389 25.1351H112.008C112.86 25.1311 113.592 25.1261 114.565 25.1601C114.681 25.1621 114.792 25.1121 114.866 25.0272L128.95 8.25095C128.356 11.3117 126.67 19.1814 125.464 24.7066C125.461 24.7335 125.458 24.7605 125.458 24.7865C125.458 24.8714 125.486 24.9543 125.538 25.0202C125.611 25.1101 125.718 25.1601 125.836 25.1601L128.685 25.1351C128.793 25.1351 128.896 25.0892 128.966 25.0052C128.966 25.0052 141.599 10.2838 143.215 8.40279C142.542 11.4755 140.697 19.2373 139.383 24.6986C139.373 24.7285 139.369 24.7545 139.369 24.7855C139.369 24.8664 139.397 24.9493 139.451 25.0162C139.523 25.1071 139.63 25.1601 139.747 25.1601H143.116C143.288 25.1601 143.441 25.0432 143.482 24.8734L144.941 18.9786L145.144 18.1495C145.151 18.3862 145.154 18.573 145.154 18.573C145.147 19.2014 145.199 19.8387 145.317 20.475C145.742 22.8515 147.861 25.0682 150.137 25.5197C152.125 25.8783 154.254 25.3759 156.352 24.0852L156.245 24.6516C156.24 24.6816 156.236 24.7116 156.236 24.7435C156.236 24.8594 156.276 24.9733 156.35 25.0632C156.448 25.1761 156.59 25.239 156.736 25.239L159.313 25.246C159.558 25.246 159.764 25.0762 159.808 24.8384L162.135 12.5244L162.692 9.20594C162.694 9.08407 162.656 8.96719 162.575 8.87429H162.576ZM0.801514 24.9203V24.6107C0.817518 24.5787 0.836524 24.5477 0.861531 24.5208L21.6715 0.625005C21.7435 0.545089 21.8455 0.49714 21.9565 0.49714H25.3155C25.4255 0.49714 25.5316 0.548086 25.6056 0.634994C25.6586 0.700924 25.6896 0.788832 25.6896 0.869746C25.6896 0.893721 25.6846 0.921691 25.6796 0.946665C25.6796 0.946665 23.0739 13.7711 22.5887 16.0907C24.2322 14.2426 36.3447 0.625005 36.3447 0.625005C36.4147 0.543091 36.5187 0.498139 36.6227 0.498139H39.7856C39.9017 0.498139 40.0117 0.551083 40.0827 0.640988C40.1527 0.730893 40.1787 0.850766 40.1487 0.96065L36.8298 14.3865C36.8578 14.3365 36.8808 14.2876 36.9068 14.2416C38.4863 11.1809 41.4881 9.02912 44.736 8.63354C44.7461 8.63055 44.7591 8.63055 44.7721 8.63055C47.7099 8.4827 49.9775 9.58953 51.3369 11.8272L51.3589 11.8631C51.8471 12.8401 52.2112 14.1537 52.2762 15.5053C52.8314 13.894 53.8166 12.4026 55.187 11.1449C57.5077 8.99316 60.3385 8.14706 63.1603 8.76341C63.1893 8.7694 63.2243 8.78238 63.2533 8.79337L63.5154 8.90625C64.1416 9.17497 64.8228 9.47266 65.3989 9.98611C65.704 8.55662 66.5993 4.31411 66.5993 4.31411C66.6493 4.08435 66.8534 3.91852 67.0894 3.91852H69.6852C69.8352 3.91852 69.9753 3.98545 70.0713 4.09634C70.1663 4.21022 70.2063 4.36206 70.1813 4.5079L66.3952 24.8384C66.3502 25.0762 66.1442 25.246 65.9021 25.246L63.3264 25.239C63.1763 25.239 63.0323 25.1761 62.9372 25.0632C62.8622 24.9733 62.8212 24.8594 62.8212 24.7435C62.8212 24.7126 62.8252 24.6806 62.8312 24.6516C62.8312 24.6516 62.8962 24.311 62.9372 24.0852C60.8386 25.3759 58.715 25.8783 56.7245 25.5187C54.4468 25.0682 52.3292 22.8515 51.9011 20.475C51.7851 19.8387 51.733 19.2014 51.739 18.573C51.649 18.653 51.53 18.7029 51.403 18.7029L39.4495 18.7079C39.4385 18.7578 39.4295 18.8008 39.4295 18.8527C39.4295 19.0346 39.4936 19.2723 39.5756 19.542L39.6266 19.7168C40.1938 21.1054 41.5551 21.9764 43.0996 21.9395C44.635 21.9045 46.0574 21.1723 47.3218 19.7648C47.4148 19.6579 47.5518 19.598 47.6929 19.598H50.3577C50.5297 19.598 50.6917 19.6859 50.7808 19.8317C50.8738 19.9766 50.8858 20.1584 50.8138 20.3132C49.3004 23.4819 45.9084 25.6096 42.3484 25.6096C39.8707 25.5137 37.7921 24.313 36.6347 22.3051C36.0586 21.2352 35.7855 19.9076 35.8015 18.5471L34.2381 24.8734C34.196 25.0432 34.043 25.1601 33.8709 25.1601H30.5C30.386 25.1601 30.2769 25.1071 30.2079 25.0162C30.1519 24.9493 30.1239 24.8664 30.1239 24.7865C30.1239 24.7545 30.1289 24.7275 30.1339 24.6986C31.4513 19.2373 33.2968 11.4755 33.967 8.40379L19.7199 25.0062C19.6499 25.0892 19.5479 25.1351 19.4388 25.1351L16.591 25.1601C16.476 25.1601 16.37 25.1101 16.2969 25.0202C16.2429 24.9543 16.2129 24.8704 16.2129 24.7855C16.2129 24.7605 16.2129 24.7335 16.2199 24.7066C17.4253 19.1814 19.1107 11.3107 19.7039 8.25095L5.61989 25.0272C5.54687 25.1121 5.43584 25.1621 5.3198 25.1601C4.34753 25.1261 3.61532 25.1301 2.76307 25.1351H1.14161C0.996569 25.1381 0.863531 25.0532 0.801514 24.9203ZM157.943 17.3643C157.36 19.3942 155.433 21.3271 153.547 21.7826C152.105 21.9724 151.048 21.8376 150.316 21.3631C149.539 20.8317 149.149 19.9096 148.848 19.0785C148.798 18.7808 148.768 18.4811 148.768 18.1884C148.768 16.3394 149.762 14.5573 151.591 13.1917C152.638 12.4605 154.067 12.1828 155.318 12.4685C156.023 12.6313 156.991 13.0489 157.593 14.1367C157.928 14.7271 158.109 15.4753 158.109 16.2045C158.109 16.6081 158.053 17.0037 157.943 17.3643ZM40.5739 15.0318L48.3191 14.9589C48.2591 14.4064 47.967 13.89 47.3548 13.2786C46.6796 12.7022 45.7543 12.4315 44.439 12.4245C43.0146 12.6223 41.3511 13.5553 40.5739 15.0318ZM64.5307 17.3643C64.6407 17.0037 64.6937 16.6081 64.6937 16.2055C64.6937 15.4753 64.5157 14.7271 64.1796 14.1377C63.5724 13.0489 62.6091 12.6313 61.9009 12.4695C60.6526 12.1828 59.2232 12.4595 58.1719 13.1917C56.3484 14.5573 55.3531 16.3384 55.3531 18.1884C55.3531 18.4811 55.3811 18.7808 55.4331 19.0785C55.7342 19.9096 56.1233 20.8317 56.8995 21.3631C57.6357 21.8376 58.694 21.9724 60.1314 21.7826C62.016 21.3271 63.9435 19.3942 64.5307 17.3643ZM70.8405 4.31411L70.2353 7.58265C70.2073 7.7285 70.2483 7.88134 70.3434 7.99921C70.4384 8.11109 70.5794 8.17702 70.7315 8.17702H73.6523C73.8924 8.17702 74.1024 8.0072 74.1454 7.76746L74.6946 4.52788C74.7176 4.38303 74.6786 4.23119 74.5856 4.11831C74.4905 4.00543 74.3495 3.9385 74.2055 3.9375L71.3336 3.91253C71.0936 3.91053 70.8865 4.08135 70.8405 4.31411ZM85.0776 17.3643C84.4924 19.3942 82.5628 21.3271 80.6803 21.7826C79.2399 21.9724 78.1836 21.8376 77.4474 21.3631C76.6712 20.8317 76.2831 19.9096 75.982 19.0785C75.93 18.7808 75.9019 18.4811 75.9019 18.1884C75.9019 16.3394 76.8952 14.5573 78.7227 13.1917C79.773 12.4605 81.1985 12.1828 82.4508 12.4685C83.157 12.6313 84.1223 13.0489 84.7265 14.1367C85.0636 14.7271 85.2436 15.4753 85.2436 16.2045C85.2436 16.6081 85.1866 17.0037 85.0776 17.3643ZM181.081 23.7985L176.27 16.1027C176.66 15.6441 180.754 10.6744 181.585 9.70042L181.217 11.6274C181.189 11.7742 181.23 11.9251 181.326 12.0379C181.42 12.1508 181.56 12.2188 181.711 12.2188H182.986C182.841 13.0978 181.507 21.1963 181.081 23.7985ZM167.075 9.64547L167.132 9.28585C167.161 9.14101 167.119 8.99017 167.027 8.87629C166.93 8.76341 166.791 8.69648 166.643 8.69648H164.044C163.804 8.69348 163.594 8.8623 163.548 9.10005L163.475 9.49164L160.698 24.6097C160.674 24.7555 160.718 24.9083 160.816 25.0212C160.914 25.1331 161.063 25.2 161.213 25.196L162.496 25.1771H163.701C163.941 25.1771 164.141 25.0102 164.188 24.7795L166.094 15.3974C166.723 13.0199 168.304 12.3117 169.703 12.1059C169.778 12.0959 170.06 12.0999 170.12 12.0619C169.162 17.7499 168.027 24.4848 168.006 24.5987C167.982 24.7405 168.024 24.8884 168.119 25.0012C168.213 25.1121 168.355 25.1771 168.498 25.1771H171.296C171.515 25.1771 171.71 25.0372 171.772 24.8274C171.862 24.5537 172.532 20.6878 172.933 18.3653C173.969 19.9306 177.279 24.9483 177.279 24.9483C177.372 25.0882 177.529 25.1721 177.696 25.1721L181.041 25.1771C181.102 25.1771 181.157 25.1631 181.214 25.1451C181.285 25.1771 181.364 25.199 181.442 25.196L184.266 25.1771C184.51 25.1751 184.715 25.0012 184.755 24.7675L186.936 12.2247L190.177 12.2198C190.42 12.2198 190.627 12.0449 190.67 11.8072L191.106 9.27586C191.112 9.24789 191.115 9.22192 191.115 9.19095C191.115 9.07707 191.073 8.96319 190.999 8.87329C190.904 8.76141 190.765 8.69648 190.614 8.69648H187.42C187.576 7.80142 188.144 4.50091 188.144 4.50091C188.148 4.47294 188.151 4.44497 188.151 4.417C188.151 4.29812 188.111 4.18424 188.034 4.09634C187.941 3.98146 187.798 3.91952 187.653 3.91952H184.845C184.603 3.91952 184.395 4.09334 184.353 4.33109C184.353 4.33109 183.729 8.02019 183.613 8.69648C183.359 8.70447 183.098 8.70946 183.098 8.70946L182.659 8.71246L182.194 8.70447C182.016 8.70047 181.857 8.79138 181.764 8.93423C181.674 8.79837 181.522 8.70946 181.352 8.70946L178.782 8.70447H178.031C177.891 8.70447 177.759 8.76341 177.662 8.8643C177.662 8.8643 175.077 11.8152 173.705 13.2966C174.106 10.9491 175.213 4.5089 175.213 4.5089C175.217 4.47893 175.22 4.45196 175.22 4.42199C175.22 4.30611 175.177 4.19224 175.1 4.10433C175.007 3.98945 174.867 3.92552 174.72 3.92552L171.924 3.91952C171.678 3.91753 171.467 4.09234 171.428 4.33009C171.363 4.71468 171.073 6.42787 170.684 8.71246L170.671 8.69248C170.573 8.5776 170.43 8.51766 170.278 8.52266C169.088 8.55762 168.012 9.04311 167.075 9.64547Z" fill="#222222"/>
</svg>
