<svg width="193" height="70" viewBox="0 0 193 70" fill="none" xmlns="http://www.w3.org/2000/svg">
<path fill-rule="evenodd" clip-rule="evenodd" d="M18.2688 27.7427V21.5322H40.135L46.1057 38.1457L52.1525 21.5322H58.8214L49.1296 48.3159H43.1589L35.6378 27.7427H29.9771V48.3159H23.5423V27.7427H18.2688Z" fill="#222222"/>
<path fill-rule="evenodd" clip-rule="evenodd" d="M7.49068 33.7984V26.8897C14.7027 26.4232 14.5477 34.186 7.49068 33.7984ZM13.3073 48.316H20.6734L14.4697 37.6034C22.1459 34.9631 20.0523 21.3765 11.5238 21.5323H0.744751V48.316H7.49068V38.3795L13.3073 48.316ZM135.119 21.5313H142.718L149.929 48.316H144.578L143.337 43.581H134.345L133.103 48.316H127.908L135.12 21.5323L135.119 21.5313ZM142.02 38.6892H135.662L138.841 26.8118L142.02 38.6892Z" fill="#222222"/>
<path fill-rule="evenodd" clip-rule="evenodd" d="M159.854 38.9997V33.2558H171.718V42.571C169.857 44.9784 168.617 46.8415 166.134 48.0062C164.507 48.7814 161.87 49.4027 159.466 49.4027C156.52 49.4027 154.116 48.8593 152.254 47.7735C150.395 46.6077 149.232 45.1333 148.223 42.9586C147.216 40.7079 146.983 38.1456 146.983 35.2727C146.983 32.2459 147.371 29.5287 148.533 27.355C149.618 25.1034 151.248 23.4731 153.418 22.3074C155.124 21.3764 156.907 20.9888 159.776 20.9888C162.567 20.9888 164.584 21.2215 165.98 21.7649C167.375 22.3074 168.461 23.1625 169.391 24.3272C170.244 25.492 170.941 26.9665 171.408 28.7526L164.894 30.227C164.584 29.1402 164.118 28.364 163.343 27.8196C162.645 27.2781 161.715 26.8895 160.629 26.7337C158.382 26.423 156.598 27.6647 155.59 28.9074C154.582 30.226 154.116 32.2449 154.116 35.1188C154.116 38.0687 154.582 40.63 155.59 41.9496C156.598 43.1933 158.071 43.8916 159.854 43.8916C160.707 43.8916 161.56 43.7357 162.335 43.4241C163.11 43.1933 163.964 42.7268 164.972 42.0275V39.0007H159.854V38.9997ZM181.255 27.5878H177.765V42.3382H181.255C187.767 42.3382 187.922 27.5878 181.255 27.5878ZM180.247 21.5322H171.718V48.3938H180.247C196.221 48.3938 196.531 21.5322 180.247 21.5322Z" fill="#222222"/>
<path d="M0.516724 70.0001H192.572V0.0739746H0.516724V70.0001Z" fill="#FFFFFE"/>
<path fill-rule="evenodd" clip-rule="evenodd" d="M52.9287 48.3169H131.63V21.5322H52.9287V48.3169Z" fill="#FFFFFE"/>
<path fill-rule="evenodd" clip-rule="evenodd" d="M52.1535 48.3159H132.405V21.5312H52.1515V48.3159H52.1535ZM53.7039 46.9174H130.932V23.0077H53.7049V46.9194L53.7039 46.9174Z" fill="#222222"/>
<path fill-rule="evenodd" clip-rule="evenodd" d="M71.383 41.7958H57.8911V27.9754H70.9958V30.6925H61.5361V33.4876H70.2967V35.4285H61.5361V39.4663H71.383V41.7958ZM107.98 41.7958H103.87L103.794 38.0688C103.794 36.1278 101.391 36.2047 99.8391 36.2047H97.2803V41.7958H93.0161V27.9744H102.631C108.912 27.9744 110.385 33.099 105.732 34.963C106.895 35.3496 107.902 36.5154 107.902 37.9898L107.98 41.7948V41.7958ZM97.1253 34.1079H101.157C102.244 34.1079 103.096 33.9521 103.562 33.7193C104.026 33.4097 104.336 32.9432 104.336 32.3218C104.336 31.1581 103.328 30.5367 101.391 30.5367H97.1253V34.1079ZM119.069 27.7427C120.309 27.7427 121.472 27.8985 122.481 28.2861C123.566 28.5978 124.496 29.0623 125.271 29.6846C126.048 30.304 126.591 31.0811 127.055 31.9352C127.443 32.8663 127.675 33.7983 127.675 34.8861C127.675 35.895 127.521 36.904 127.055 37.7581C126.668 38.6132 126.048 39.3884 125.271 40.0097C124.496 40.63 123.566 41.1735 122.559 41.4851C121.472 41.7948 120.31 42.0276 119.069 42.0276C117.828 42.0276 116.588 41.7958 115.58 41.4851C114.494 41.1735 113.564 40.63 112.867 40.0097C112.091 39.3884 111.469 38.6891 111.083 37.7581C110.617 36.904 110.384 35.972 110.384 34.8861C110.384 33.7983 110.617 32.7883 111.083 31.9352C111.469 31.0811 112.091 30.305 112.867 29.6846C113.642 29.0623 114.572 28.5978 115.58 28.2861C116.666 27.8985 117.828 27.7427 119.069 27.7427ZM119.069 39.5432C119.767 39.5432 120.465 39.4663 121.162 39.2335C121.782 38.9998 122.325 38.6891 122.791 38.3015C123.256 37.9139 123.566 37.4474 123.876 36.8271C124.109 36.2836 124.264 35.5844 124.264 34.8861C124.264 34.1089 124.109 33.4876 123.876 32.8663C123.566 32.3228 123.256 31.8573 122.791 31.4697C122.325 31.0801 121.782 30.7705 121.162 30.5377C120.465 30.305 119.844 30.227 119.069 30.227C118.37 30.227 117.673 30.305 116.976 30.5367C116.356 30.7705 115.813 31.0811 115.347 31.4697C114.882 31.8573 114.494 32.3228 114.261 32.9442C114.029 33.4876 113.874 34.1089 113.874 34.8861C113.874 35.5844 114.029 36.2836 114.261 36.8271C114.494 37.4474 114.881 37.9139 115.347 38.3015C115.813 38.6891 116.355 39.0008 116.976 39.2335C117.596 39.4663 118.293 39.5432 119.069 39.5432ZM75.3381 27.9754H78.8271V37.7581C78.9811 40.4752 85.8051 40.3973 85.649 37.7581V27.9744H89.4491L89.3711 37.9898C89.4491 43.1144 75.4141 43.1144 75.3371 37.9898V27.9754H75.3381ZM126.513 27.8985C125.426 27.8985 124.574 27.0444 124.574 25.9566C124.574 24.8707 125.426 24.0166 126.513 24.0166C127.599 24.0166 128.451 24.8707 128.451 25.9566C128.451 27.0444 127.599 27.8985 126.513 27.8985ZM126.513 27.5878C127.443 27.5878 128.141 26.8116 128.141 25.9566C128.141 25.0255 127.443 24.2484 126.513 24.2484C125.582 24.2484 124.884 25.0255 124.884 25.9566C124.884 26.8116 125.582 27.5878 126.513 27.5878ZM126.203 25.7238H126.901C126.901 25.6469 126.978 25.6469 126.978 25.6469C127.056 25.57 127.056 25.492 127.056 25.492C127.056 25.4141 127.056 25.3362 126.978 25.2583C126.978 25.2583 126.901 25.1814 126.823 25.1814H126.203V25.7238ZM125.737 26.9675V24.8697H127.133L127.366 25.1035C127.443 25.1814 127.443 25.3362 127.443 25.4131C127.443 25.57 127.443 25.7238 127.366 25.8027C127.21 25.8786 127.133 25.9566 126.901 26.0345C126.978 26.0345 127.056 26.1124 127.133 26.1903C127.21 26.2682 127.288 26.3461 127.366 26.5L127.676 26.9675H127.133L126.823 26.5C126.746 26.3461 126.668 26.1903 126.591 26.1903C126.591 26.1124 126.513 26.1124 126.513 26.1124C126.435 26.0345 126.358 26.0345 126.28 26.0345H126.203V26.9675H125.737Z" fill="#222222"/>
</svg>
