<svg width="187" height="45" viewBox="0 0 187 45" fill="none" xmlns="http://www.w3.org/2000/svg">
<path fill-rule="evenodd" clip-rule="evenodd" d="M46.6822 32.8778V3.96037H63.676V7.58554H50.2012V16.4762H62.3026V20.1023H50.2012V29.1657H64.6203V32.7909H46.6822V32.8778ZM82.4724 32.8778L76.6357 25.1959L70.7991 32.8778H66.6809L74.6622 22.6057L66.2508 11.9879H70.8861L76.6357 19.9305L82.4724 11.9879H87.0207L79.0394 22.6057L86.5926 32.8778H82.4724ZM92.2572 29.7701V44.0131H88.7382V22.6916C88.7382 17.2533 92.8574 11.4704 99.2952 11.4704C105.817 11.4704 110.709 15.6141 110.709 22.4329C110.709 29.0798 105.732 33.655 100.067 33.655C97.3206 33.655 93.6306 32.4463 92.2572 29.7701ZM107.019 22.4329C107.019 17.7718 104.016 15.0107 98.694 15.2684C96.1193 15.3553 92.1722 17.2533 92.5143 23.9013C92.6003 26.059 94.8319 30.1147 99.7243 30.1147C103.93 30.1147 107.019 27.6983 107.019 22.4329ZM113.714 32.8778V11.9879H117.233V14.2325C118.95 12.2466 121.61 11.5563 124.442 11.5563V15.3553C124.013 15.2684 119.807 14.75 117.233 20.2751V32.9647H113.714V32.8778ZM125.387 22.4339C125.387 16.3902 129.678 11.4704 135.6 11.4704C142.982 11.4704 145.727 16.3912 145.727 22.6916V24.4188H129.249C129.506 28.3896 133.025 30.4604 136.287 30.3745C138.689 30.2886 140.321 29.5983 142.038 27.8721L144.355 30.2896C142.209 32.3604 139.463 33.7409 136.116 33.7409C129.85 33.655 125.387 28.9939 125.387 22.4339ZM135.342 15.0107C131.996 15.0107 129.421 17.9436 129.249 21.1392H142.037C142.037 18.0305 139.807 15.0107 135.342 15.0107ZM147.531 29.9429L150.105 27.6124C150.02 27.6124 151.393 28.9939 151.565 29.0798C152.165 29.5983 152.765 29.9429 153.539 30.1157C155.769 30.7201 159.803 30.5473 160.148 27.4396C160.319 25.7134 159.031 24.7634 157.573 24.159C155.684 23.4698 153.624 23.21 151.736 22.3469C149.59 21.3979 148.218 19.7577 148.218 17.3412C148.218 11.0379 157.143 10.003 161.177 12.9379C161.349 13.1107 163.322 14.9228 163.237 14.9228L160.662 16.9956C159.375 15.4412 158.173 14.6641 155.427 14.6641C154.054 14.6641 152.165 15.2684 151.822 16.7359C151.307 18.8077 153.624 19.5849 155.169 20.0164C157.23 20.5339 159.46 20.8795 161.263 22.0013C163.753 23.5557 164.354 26.9211 163.408 29.5114C162.378 32.3604 159.288 33.4822 156.543 33.5671C153.282 33.7409 150.449 32.705 148.131 30.3755C147.959 30.3755 147.531 29.9429 147.531 29.9429ZM165.64 29.9429L168.216 27.6124C168.13 27.6124 169.502 28.9939 169.674 29.0798C170.274 29.5983 170.877 29.9429 171.648 30.1157C173.878 30.7201 177.915 30.5473 178.258 27.4396C178.428 25.7134 177.141 24.7634 175.682 24.159C173.793 23.4698 171.734 23.21 169.846 22.3469C167.701 21.3979 166.327 19.7577 166.327 17.3412C166.327 11.0379 175.254 10.003 179.287 12.9379C179.459 13.1107 181.433 14.9228 181.348 14.9228L178.773 16.9956C177.484 15.4412 176.282 14.6641 173.536 14.6641C172.163 14.6641 170.275 15.2684 169.931 16.7359C169.417 18.8077 171.734 19.5849 173.278 20.0164C175.339 20.5339 177.572 20.8795 179.373 22.0013C181.862 23.5557 182.464 26.9211 181.519 29.5114C180.488 32.3604 177.399 33.4822 174.652 33.5671C171.391 33.7409 168.559 32.705 166.241 30.3755C166.069 30.3755 165.641 29.9429 165.641 29.9429H165.64ZM182.377 11.9879V9.74326H181.605V9.31172H183.664V9.74326H182.892V11.9879H182.377ZM186.239 11.9879V9.91708L185.467 11.9879H185.295L184.522 9.91708V11.9879H184.093V9.31172H184.781L185.467 11.1258L186.154 9.31172H186.84V11.9879H186.239ZM22.8214 32.8778L20.2467 25.9721H6.34269L3.76696 32.8778H0.0769043L11.2351 3.96037H15.2682L26.3414 32.8778H22.8214ZM13.1226 8.104L7.88813 22.4339H18.7872L13.1226 8.104ZM28.6581 32.8778H32.2631V3.96137H28.6581V32.8778ZM37.6696 32.8778H41.2747V12.4204H37.6696V32.8778ZM44.7076 5.77346V5.42782C41.9619 5.34191 39.7292 3.09729 39.6442 0.335205H39.129C39.043 3.09729 36.8114 5.34191 34.0656 5.42782V5.77346C36.8114 5.85937 39.043 8.104 39.129 10.8661H39.6442C39.7292 8.104 41.9619 5.85937 44.7076 5.77346Z" fill="#222222"/>
</svg>
