<svg width="132" height="58" viewBox="0 0 132 58" fill="none" xmlns="http://www.w3.org/2000/svg">
<path fill-rule="evenodd" clip-rule="evenodd" d="M39.9658 22.4173H28.1114C27.7153 22.4173 27.4162 22.1156 27.4162 21.7171V20.2596C27.4082 19.905 27.5212 19.7441 27.7393 19.4724L37.175 8.42909H27.9283C27.5342 8.42909 27.2351 8.12641 27.2341 7.72983V6.69792C27.2351 6.29834 27.5342 5.99966 27.9283 5.99766H39.9037C40.2999 5.99966 40.5989 6.29834 40.5989 6.69792V8.18435C40.6049 8.45207 40.5139 8.67983 40.2999 8.92057L30.8402 19.9849H39.9648C40.3609 19.9859 40.659 20.2876 40.66 20.6851V21.7171C40.66 22.1156 40.3599 22.4173 39.9648 22.4173H39.9658ZM63.3334 22.721H63.3364C64.1847 22.704 64.8118 22.5342 65.0579 22.2575C65.1449 22.1576 65.188 22.0447 65.176 21.9338C65.1699 21.8409 65.17 21.8409 64.9369 20.7421L64.9319 20.7151C64.8789 20.4284 64.6778 20.2976 64.5088 20.2976L64.4868 20.2985C64.4868 20.2985 64.2727 20.2886 64.0626 20.2886H64.0596C63.4545 20.2706 62.9543 20.1807 62.9433 19.2896V0.638325C62.9433 0.327654 62.7573 0.0109884 62.3992 0.000998932L62.2941 0.00199792L60.6387 0.427548C60.3566 0.457517 60.0635 0.659303 60.0755 1.03391V19.3505C60.0785 21.5213 61.2358 22.717 63.3334 22.722V22.721ZM96.797 22.4173H95.3176C94.9224 22.4173 94.6233 22.1156 94.6213 21.7171V10.4899C94.5963 8.59192 94.0332 8.06248 92.0006 8.03251C89.6999 8.03251 87.3753 8.6139 86.6091 8.82467V21.7171C86.6071 22.1226 86.329 22.4173 85.9439 22.4173H84.4354C84.0403 22.4173 83.7422 22.1156 83.7412 21.7171V9.12536C83.7192 7.95959 83.8283 7.15344 85.4747 6.61801C87.0522 6.06859 90.069 5.60408 92.0636 5.60308C95.8607 5.60807 97.4852 6.98862 97.4892 10.2162V21.7171C97.4892 22.1156 97.1891 22.4173 96.796 22.4173H96.797ZM111.64 8.49402C111.09 8.35317 109.55 8.00454 107.815 8.00454C104.632 8.03351 103.296 8.90359 103.264 14.223C103.3 20.0638 105.026 20.3795 107.845 20.4094V20.5333V20.4094C109.599 20.4094 111.104 20.0418 111.638 19.894L111.64 8.49402ZM112.416 22.1985L112.241 22.2435C111.301 22.4832 110.014 22.8119 107.755 22.8119H107.752C101.533 22.8029 100.311 19.6432 100.305 14.192C100.314 7.93861 102.283 5.61107 107.569 5.60308C109.436 5.60308 110.722 5.84582 111.644 6.07059L111.638 1.03491C111.631 0.812142 111.73 0.523447 112.248 0.423552L113.901 0H113.991C114.372 0.00998944 114.505 0.349631 114.506 0.637326V19.5643C114.531 20.7571 114.391 21.782 112.416 22.1985ZM124.475 20.3805C120.401 20.3625 120.197 18.2567 120.168 14.223C120.197 10.1683 120.4 8.05249 124.475 8.03351C128.552 8.05349 128.756 10.1683 128.784 14.22C128.755 18.2557 128.552 20.3625 124.475 20.3795V20.3805ZM124.475 5.60308C117.756 5.61307 117.186 10.0554 117.18 14.223C117.186 18.3726 117.756 22.8039 124.475 22.8119H124.477C131.19 22.8029 131.763 18.3866 131.773 14.223C131.765 9.86657 131.196 5.61207 124.475 5.60208V5.60308ZM77.9016 14.3099C77.2274 14.3179 73.9635 14.3698 72.6611 14.6505L72.5611 14.6735C71.1006 15.0021 69.9453 15.2599 69.9323 17.4386C69.9353 20.1777 72.0179 20.4234 74.1505 20.4414L74.1525 20.5643V20.4414C75.4889 20.4414 76.7483 20.2496 77.9006 19.875V14.3099H77.9016ZM80.7834 10.3081V19.0159C80.8134 21.1836 80.2593 21.8729 78.0946 22.3794C77.1454 22.5771 75.693 22.8099 74.1195 22.8119C71.7988 22.8059 66.9755 22.7969 66.9735 17.5594C66.9575 13.4348 69.4202 12.7176 72.394 12.258C74.3436 11.9434 76.3251 11.8964 77.3324 11.8964C77.6045 11.8964 77.7825 11.8984 77.8856 11.9014V10.429C77.8756 9.44602 77.8716 8.85065 76.9563 8.50301C76.3962 8.26527 75.5549 8.15438 74.3076 8.15438C72.25 8.15438 70.4064 8.61989 69.1881 8.92757L68.722 9.03745C68.6719 9.05044 68.6179 9.06242 68.5479 9.06742C68.3319 9.06742 68.0978 8.93756 68.0108 8.65286L68.0038 8.62688L67.7277 7.22437V7.15344C67.7317 6.82179 67.9677 6.628 68.1898 6.55807C69.1741 6.18846 71.7728 5.60408 74.5716 5.60308C76.6182 5.60408 78.0946 5.8718 79.0889 6.42121C80.7894 7.32626 80.7864 8.97951 80.7834 10.3071V10.3081ZM53.7797 19.875C52.6274 20.2496 51.367 20.4414 50.0306 20.4414V20.5643L50.0296 20.4414C47.897 20.4234 45.8144 20.1777 45.8114 17.4386C45.8254 15.2609 46.9798 15.0011 48.4412 14.6735L48.5432 14.6505C49.8426 14.3698 53.1065 14.3179 53.7797 14.3099V19.875ZM54.967 6.42121C53.9738 5.8718 52.4973 5.60408 50.4517 5.60208C47.653 5.60408 45.0542 6.18846 44.0709 6.55807C43.8479 6.628 43.6108 6.82179 43.6068 7.15344L43.6078 7.22437L43.8829 8.62688L43.8899 8.65286C43.9759 8.93855 44.213 9.06642 44.427 9.06642H44.428C44.4971 9.06242 44.5521 9.05044 44.6021 9.03845L45.0672 8.92857C46.2876 8.61889 48.1281 8.15438 50.1867 8.15438C51.435 8.15438 52.2743 8.26527 52.8374 8.50401C53.7507 8.85165 53.7547 9.44602 53.7667 10.429V11.9014C53.6597 11.8984 53.4846 11.8964 53.2135 11.8964C52.2053 11.8964 50.2227 11.9434 48.2741 12.258C45.2993 12.7176 42.8386 13.4348 42.8526 17.5594C42.8556 22.7969 47.68 22.8059 49.9986 22.8119C51.5731 22.8099 53.0255 22.5771 53.9738 22.3794C56.1384 21.8729 56.6905 21.1826 56.6615 19.0159V10.3081C56.6645 8.97951 56.6695 7.32626 54.967 6.42121Z" fill="#222222"/>
<path fill-rule="evenodd" clip-rule="evenodd" d="M116.146 41.1306C116.116 40.0018 116.053 38.9069 115.774 37.8101C115.275 35.8671 114.124 35.2738 111.791 35.2738C109.398 35.2738 108.277 35.9011 107.779 37.8111C107.499 38.876 107.468 40.0327 107.438 41.1616L116.146 41.1316V41.1306ZM119.101 41.3494V42.8837C119.101 43.1035 118.885 43.3532 118.666 43.3532H107.468C107.468 45.0135 107.809 45.9515 108.524 46.7347C109.398 47.7386 110.827 48.0832 112.881 48.0832C114.809 48.0832 116.053 47.6737 117.392 47.2981C117.455 47.2681 117.517 47.2681 117.579 47.2681C117.735 47.2681 117.827 47.362 117.919 47.5808L118.262 48.8644C118.294 48.8964 118.294 48.9593 118.294 48.9903C118.294 49.1781 118.169 49.3049 117.952 49.3669C116.737 49.8664 114.685 50.3059 112.538 50.3059C106.442 50.3059 104.481 47.5498 104.481 41.694C104.481 36.2757 105.695 33.0501 111.823 33.0501C115.058 33.0501 116.955 34.0221 118.012 35.7123C118.885 37.1538 119.101 39.0947 119.101 41.3494ZM98.5365 47.5488C98.5365 47.5488 96.794 48.1132 94.6493 48.1132C91.6315 48.1132 89.983 47.4859 89.983 41.693C89.983 36.3067 91.3834 35.2728 94.6173 35.2728C96.7029 35.2728 98.5365 35.7732 98.5365 35.7732V47.5488ZM101.4 50.9692V36.2447C101.4 35.086 101.307 34.1789 99.3777 33.7074C98.2574 33.4247 96.6079 33.0501 94.4003 33.0501C88.8007 33.0501 86.9982 35.5245 86.9982 41.725C86.9982 47.362 88.3035 50.3059 94.3082 50.3059C96.5479 50.3059 97.6402 50.0152 98.6365 49.7625L98.5265 49.9123V52.3288C98.4404 54.2367 97.5592 55.7262 94.2072 55.7262C91.7265 55.7262 90.2711 55.0249 89.5749 53.3896C89.4749 53.2458 89.3018 53.1958 89.1018 53.2777L87.6073 53.8761C87.3663 53.973 87.3032 54.1678 87.3873 54.3856L87.3813 54.3926C88.1715 56.7511 90.2151 58.0058 94.2072 58.0058C100.399 58.0058 101.402 54.7862 101.402 51.4996V50.9702H101.4V50.9692ZM83.9153 37.6233V49.4298C83.9153 49.7095 83.7582 49.8973 83.4491 49.8973H81.5216C81.2105 49.8973 81.0225 49.7095 81.0225 49.4298V37.9659C81.0225 35.963 80.2782 35.2738 78.2567 35.2738C75.6109 35.2738 72.9041 36.0569 72.9041 36.0569V49.4308C72.9041 49.7105 72.7491 49.8983 72.438 49.8983H70.5085C70.1984 49.8983 70.0103 49.7105 70.0103 49.4308V36.3077C70.0103 35.085 70.1984 34.5535 71.8158 34.0221C73.4323 33.4897 76.4171 33.0501 78.4107 33.0501C82.1438 33.0501 83.9163 34.1789 83.9163 37.6233H83.9153ZM66.4373 33.0481H66.3143L64.3207 33.5196C64.0426 33.5496 63.8876 33.6755 63.8876 33.9891L63.9176 44.1044C63.9176 46.2951 63.5445 48.1132 59.8414 48.1132C56.7305 48.1132 55.7662 46.8895 55.7662 44.1674V33.4907C55.7662 33.2709 55.6752 33.0511 55.4262 33.0511H55.3321L53.3095 33.4907C53.0595 33.5526 52.8734 33.6775 52.8734 33.9602V43.9186C52.8734 48.1152 54.4589 50.3079 59.8414 50.3079C66.0332 50.3079 66.7784 47.1752 66.7784 43.8867V33.4897C66.7784 33.2389 66.6844 33.0501 66.4373 33.0501V33.0481ZM47.0618 41.693C47.0618 37.7472 46.8757 35.2728 42.6455 35.2728C38.4453 35.2728 38.2593 37.7472 38.2593 41.693C38.2593 45.6079 38.4453 48.0822 42.6455 48.0822C46.8757 48.0822 47.0618 45.6079 47.0618 41.693ZM50.0496 41.693C50.0496 46.42 49.2714 50.3059 42.6455 50.3059C36.0506 50.3059 35.2424 46.42 35.2424 41.693C35.2424 36.932 36.0506 33.0491 42.6445 33.0491C49.2714 33.0491 50.0496 36.932 50.0496 41.693ZM33.4859 47.7995C33.4559 47.7995 33.4239 47.8305 33.3639 47.8305C33.1758 47.8635 32.7087 47.9564 32.2735 47.9564C31.6514 47.9564 30.9042 47.7686 30.9042 46.6398V27.8936C30.9042 27.6438 30.8121 27.457 30.5631 27.457H30.469L28.4475 27.9245C28.1674 27.9585 28.0123 28.0844 28.0123 28.3641V46.7666C28.0123 49.1161 29.3177 50.212 31.4013 50.212C32.6477 50.212 33.5189 49.9303 33.767 49.8054C33.829 49.8054 34.015 49.7105 34.015 49.4608V49.3669L33.735 48.0832C33.705 47.8635 33.6099 47.7995 33.4859 47.7995Z" fill="#222222"/>
<path fill-rule="evenodd" clip-rule="evenodd" d="M18.9398 11.2412L18.9368 11.2422L18.7447 11.0295C15.9499 7.94373 10.1523 4.21167 3.59041 4.21167C1.53482 4.21167 0.474522 9.84272 0.566549 15.0642L0.560547 15.0632C0.670578 19.6763 1.70087 24.0977 3.74646 24.0977C11.5887 24.0977 20.5212 16.7814 20.5212 14.1592C20.5212 13.5029 19.844 12.2372 18.9408 11.2412" fill="#222222"/>
</svg>
