<svg width="71" height="70" viewBox="0 0 71 70" fill="none" xmlns="http://www.w3.org/2000/svg">
<path fill-rule="evenodd" clip-rule="evenodd" d="M0.536987 69.916H70.2069V0.157715H0.536987V69.916Z" fill="#222222"/>
<path fill-rule="evenodd" clip-rule="evenodd" d="M35.3729 4.09668C18.3091 4.09668 4.46912 17.955 4.46912 35.047C4.46912 52.1209 18.3091 65.9803 35.3709 65.9803C52.4318 65.9803 66.2727 52.1209 66.2727 35.047C66.2737 17.955 52.4328 4.09668 35.3719 4.09668" fill="#FFFFFE"/>
<path fill-rule="evenodd" clip-rule="evenodd" d="M33.4514 35.9049L28.0008 30.4487L21.708 36.754V38.8718L23.2925 37.2775L27.6807 41.6818L26.0623 43.3041L27.1156 44.369L35.8941 35.5593V33.4525L33.4514 35.9049ZM7.98212 29.2959H17.6999V31.3957H16.0794V38.1835L21.708 35.0468V40.7967H7.98212V38.688H9.61158V31.3957H7.98212V29.2959ZM48.9558 29.2959V31.3957H50.5833V38.688H48.9558V40.7967H62.6897V35.0468L57.0511 38.1835V31.3957H58.6806V29.2959H48.9558ZM27.1946 22.7578C29.1051 22.7578 30.6556 24.3002 30.6556 26.2122C30.6556 28.1261 29.1051 29.6785 27.1946 29.6785C25.2841 29.6785 23.7346 28.1261 23.7346 26.2122C23.7346 24.2992 25.2851 22.7578 27.1956 22.7578" fill="#222222"/>
<path fill-rule="evenodd" clip-rule="evenodd" d="M43.5393 29.2961H34.2746V31.3959H35.8951V38.6882H34.2746V40.796H43.5393C50.3892 40.796 50.4592 29.2961 43.5393 29.2961Z" fill="#222222"/>
<path fill-rule="evenodd" clip-rule="evenodd" d="M42.2378 37.2078H41.7778V32.8674H42.1678C44.1938 32.8674 44.1938 37.2178 42.2378 37.2078Z" fill="#FFFFFE"/>
</svg>
