<svg width="38" height="38" viewBox="0 0 38 38" fill="none" xmlns="http://www.w3.org/2000/svg">
<g id="Group">
<path id="Vector" fill-rule="evenodd" clip-rule="evenodd" d="M36.1909 11.0224C34.6737 8.68454 31.6485 7.84994 29.1472 9.07855C26.4751 10.4348 25.4079 13.7003 26.764 16.3724C27.5365 17.8946 28.9802 18.9645 30.6611 19.2606C30.4571 25.7013 25.0705 30.7572 18.6298 30.5532C12.3739 30.3549 7.3888 25.2558 7.332 18.997C7.32072 14.1749 10.3198 9.85827 14.8429 8.18629C15.7121 7.87185 16.2132 6.96129 16.0136 6.05882L16.0004 6.00116C15.7783 5.01402 16.3987 4.03347 17.3858 3.81136C17.4665 3.79349 17.5484 3.78073 17.6307 3.7737C18.0847 3.73201 18.5411 3.71137 19 3.71094C19.5676 3.71094 20.1348 3.74201 20.6992 3.80391C21.7191 3.91561 22.636 3.17908 22.7475 2.15938C22.7511 2.12577 22.7539 2.09215 22.7558 2.05854C22.7833 1.04714 22.0165 0.190196 21.0083 0.10531C20.3411 0.0351033 19.6708 0 19 0C8.50658 0 6.10352e-05 8.50668 6.10352e-05 19.0002C6.10352e-05 29.4935 8.50679 38 19.0002 38C29.4935 38 38.0001 29.4933 38.0001 19.0002C38.0001 17.1425 37.6267 13.1378 36.1909 11.0224Z" fill="#222222"/>
<path id="Vector_2" fill-rule="evenodd" clip-rule="evenodd" d="M26.1663 1.44236C27.2535 1.44236 28.1347 2.32377 28.1347 3.41069C28.1347 4.49762 27.2535 5.37903 26.1663 5.37903C25.0794 5.37903 24.1982 4.49762 24.1982 3.41069C24.1982 2.32377 25.0794 1.44236 26.1663 1.44236Z" fill="#222222"/>
</g>
</svg>
