<svg width="190" height="32" viewBox="0 0 190 32" fill="none" xmlns="http://www.w3.org/2000/svg">
<path fill-rule="evenodd" clip-rule="evenodd" d="M108.726 7.29754C111.054 7.29754 112.488 8.11667 113.288 8.80595L113.516 9.00474L113.653 8.73902C114.017 8.05674 114.74 7.68313 115.679 7.68313H117.984L117.964 23.5703C117.964 29.6269 113.038 31.7807 108.819 31.7807C106.77 31.7807 104.503 31.2293 102.762 30.3092L102.416 30.1264L102.972 28.7079L103.365 27.7389C103.793 26.6881 104.407 26.4273 105.459 26.743C106.264 27.0337 107.468 27.3553 108.79 27.3553C111.511 27.3553 113.014 26.0777 113.014 23.7661V23.2846L112.631 23.5703C111.641 24.3166 110.396 24.6822 108.819 24.6822C104.201 24.6822 100.975 21.081 100.975 15.9254C100.975 10.7659 104.094 7.29754 108.726 7.29754ZM135.944 7.39244C138.5 7.39244 142.303 8.4743 142.303 11.4531V13.7108L139.71 13.7068C139.493 13.7068 138.389 13.6428 138.024 12.4311L138.002 12.3422C137.842 11.8078 136.832 11.4891 135.944 11.4891C133.205 11.4891 131.292 13.503 131.292 16.3799C131.292 19.7134 133.758 21.2088 136.203 21.2088C138.721 21.2088 140.667 19.3198 140.906 19.0761L140.93 19.0511L141.2 18.7644L143.254 22.1578L143.118 22.3257C143.094 22.3546 140.54 25.4324 135.843 25.4324C130.429 25.4324 126.505 21.6424 126.505 16.4149C126.505 11.1904 130.471 7.39244 135.944 7.39244ZM27.0957 7.37546C32.3702 7.37546 36.1983 11.1485 36.1983 16.346C36.1983 21.5425 32.3702 25.3165 27.0957 25.3165C21.8402 25.3165 18.0271 21.5425 18.0271 16.346C18.0271 11.1485 21.8402 7.37546 27.0957 7.37546ZM46.5543 7.37546C51.8228 7.37546 55.6589 11.1485 55.6589 16.346C55.6589 21.5425 51.8228 25.3165 46.5543 25.3165C41.2938 25.3165 37.4807 21.5425 37.4807 16.346C37.4807 11.1485 41.2938 7.37546 46.5533 7.37546H46.5543ZM152.745 7.37546C158.012 7.37546 161.847 11.1485 161.847 16.346C161.847 21.5425 158.012 25.3165 152.745 25.3165C147.485 25.3165 143.672 21.5425 143.672 16.346C143.672 11.1485 147.485 7.37546 152.745 7.37546ZM122.806 19.4827C124.398 19.4827 125.693 20.7733 125.693 22.3666C125.693 23.9569 124.398 25.2486 122.805 25.2486C121.218 25.2486 119.927 23.9569 119.927 22.3666C119.927 20.7733 121.218 19.4817 122.805 19.4817L122.806 19.4827ZM77.3711 7.72908C79.1276 7.72908 79.9778 8.58818 79.9778 10.3583L79.9678 25.0408H79.9578V25.0468H78.7975L77.6301 25.0508C77.5991 25.0508 77.5721 25.0468 77.5401 25.0468H75.0344V21.1209H75.0364L75.0224 7.72908H77.3721H77.3711ZM59.783 1.06712C61.1534 1.06712 62.4238 1.34383 62.4238 3.37668V13.5379H63.219C63.8152 13.5379 64.2133 13.3911 64.4094 13.1034L67.8944 7.72908H73.524L68.8856 14.5998C68.6486 14.9485 68.4015 15.2491 68.1614 15.5019L67.9934 15.6617L68.1534 15.8295C68.4015 16.0873 68.6366 16.4129 68.8406 16.7955L70.7292 20.3577L73.575 25.0528H69.7509C68.3105 25.0528 67.5463 24.811 66.776 23.4075L64.0253 18.23C63.8472 17.9233 63.4601 17.8574 62.8919 17.8574H62.4238V25.0518H57.4374L57.4314 1.06812H59.782L59.783 1.06712ZM93.0555 7.3355C97.1107 7.3355 99.2533 9.65005 99.2533 14.0284L99.2613 25.0458H96.9026C95.1021 25.0458 94.2689 24.2047 94.2689 22.4116V14.8675C94.2689 12.7648 93.6657 11.9506 92.1183 11.9506C90.1967 11.9506 88.6573 13.1134 88.1071 14.9844C87.8991 15.6018 87.798 16.2791 87.798 17.0612V25.0458H82.8446L82.8306 7.72209H85.0653C86.4176 7.72209 87.3159 8.2825 87.581 9.30042L87.689 9.71399L87.9921 9.41031C88.8984 8.46131 90.5178 7.3355 93.0555 7.3355ZM183.976 7.39144L184.209 7.39544C187.881 7.48534 189.746 9.71698 189.746 14.0274L189.741 25.0408H187.514C185.766 25.0408 184.988 24.2636 184.988 22.5195V14.8136C184.988 12.6049 184.448 11.7818 182.992 11.7818C180.979 11.7818 179.681 13.5829 179.299 15.342C179.112 15.9654 179.033 16.5907 179.033 17.4248V25.0408H174.268V14.8136C174.268 12.8976 173.64 11.9067 172.354 11.7848C170.268 11.587 169.024 13.5659 168.573 15.407C168.407 16.0972 168.323 16.7595 168.323 17.4248V25.0408H163.593L163.613 7.78702H165.694C166.993 7.78702 167.851 8.31447 168.111 9.27545L168.293 9.94175L168.762 9.43428C169.48 8.67508 171.023 7.39244 173.326 7.39244C175.523 7.39244 177.102 8.23955 178.019 9.90678L178.3 10.4142L178.659 9.96073C179.934 8.35243 181.923 7.39344 183.978 7.39344L183.976 7.39144ZM3.02786 1.07711H8.20934C12.7506 1.07711 15.6835 3.51154 15.6835 7.28056C15.6835 9.74396 14.4431 11.1694 13.7029 11.8038L13.0667 12.3462L13.7959 12.7558C15.5654 13.7477 16.6167 15.6997 16.6167 17.9852C16.6167 22.2248 13.3608 24.9639 8.31237 24.9639L2.38768 24.9649L2.37768 24.9639H0V3.56648C0.0130037 2.21691 1.09231 1.12406 2.4387 1.07711H3.02786ZM27.0957 11.573C24.611 11.573 22.8865 13.5379 22.8865 16.347C22.8865 19.154 24.611 21.1219 27.0957 21.1219C29.6294 21.1219 31.3389 19.2 31.3389 16.347C31.3389 13.5379 29.5944 11.572 27.0957 11.572V11.573ZM46.5543 11.573C44.0706 11.573 42.3421 13.5379 42.3421 16.347C42.3421 19.154 44.0706 21.1219 46.5533 21.1219C49.088 21.1219 50.7975 19.2 50.7975 16.347C50.7975 13.5379 49.047 11.572 46.5543 11.572V11.573ZM152.745 11.573C150.261 11.573 148.53 13.5379 148.53 16.347C148.53 19.154 150.261 21.1219 152.744 21.1219C155.277 21.1219 156.99 19.2 156.99 16.347C156.99 13.5379 155.237 11.572 152.744 11.572L152.745 11.573ZM8.64347 14.428H5.89568C5.01243 14.5519 4.61232 15.0843 4.61232 16.1122V20.9181L8.64446 20.9231C10.64 20.9221 11.8774 19.7074 11.8774 17.6596C11.8774 15.6617 10.607 14.428 8.64446 14.428H8.64347ZM109.436 11.6529C106.272 11.6529 106.025 14.8246 106.025 15.7966C106.025 18.0022 106.99 20.3577 109.696 20.3577C111.252 20.3577 113.106 19.5955 113.106 15.9594C113.106 12.1045 111.011 11.6539 109.436 11.6539V11.6529ZM8.17733 4.99298H6.11374C5.08345 5.0609 4.61232 5.58635 4.61232 6.69418V10.7329H8.24135C10.2809 10.7329 11.0071 9.16157 11.0071 7.81499C11.0071 6.04986 9.94684 4.99298 8.17633 4.99298H8.17733ZM77.305 0.315918C78.8985 0.315918 80.1939 1.60456 80.1939 3.19887C80.1939 4.78919 78.8985 6.07883 77.305 6.07883C75.7156 6.07883 74.4262 4.78919 74.4262 3.19887C74.4262 1.60556 75.7166 0.315918 77.305 0.315918Z" fill="#222222"/>
</svg>
