<svg width="184" height="30" viewBox="0 0 184 30" fill="none" xmlns="http://www.w3.org/2000/svg">
<path fill-rule="evenodd" clip-rule="evenodd" d="M91.7457 29.3379C97.9495 29.3379 102.083 25.3332 102.083 18.5753V1.28657H95.2967V18.3036C95.2967 21.4503 94.1614 23.0086 91.7817 23.0086C89.485 23.0086 88.5018 21.4133 88.5018 18.3036V1.28657H81.6798V18.5753C81.6888 25.483 85.4659 29.3379 91.7437 29.3379H91.7457ZM112.157 14.0291H110.91V7.46604H112.701C115.709 7.46604 117.152 8.40005 117.152 10.6876C117.142 13.171 115.511 14.0291 112.157 14.0291ZM120.263 2.79897C118.388 1.48236 116.168 1.28657 113.244 1.28657H104.041V28.9084H110.825V20.0128H112.776C115.661 20.0128 117.845 19.816 119.608 18.7711C122.371 17.1009 124.012 14.151 124.012 10.5748C124.012 7.11141 122.729 4.50716 120.263 2.79897ZM161.536 13.5246L171.873 28.9094H177.833V1.28657H171.058V16.6334L160.87 1.28657H154.751V28.9094H161.536V13.5246ZM65.6922 22.5791C61.8682 22.5791 58.4002 19.2376 58.4002 14.8872C58.4002 10.8455 61.6341 7.62587 65.7763 7.62587C69.6754 7.62587 72.9183 10.8455 72.9183 14.8882C72.9083 19.3874 69.6754 22.5801 65.6922 22.5801V22.5791ZM75.6351 4.86179C72.9453 2.22058 69.4403 0.7831 65.7293 0.7831C61.7931 0.7831 58.3542 2.14566 55.6264 4.82483C52.8996 7.503 51.4092 11.0043 51.4092 14.8123C51.4092 18.892 52.7406 22.3084 55.3463 25.0724C58.0721 27.9474 61.5871 29.4218 65.6823 29.4218C69.5434 29.4218 73.2084 27.9104 75.8972 25.1104C78.5129 22.4302 79.9183 18.892 79.9183 14.9351C79.9283 11.1531 78.4469 7.61588 75.6351 4.86179ZM139.184 22.5791C135.361 22.5791 131.893 19.2376 131.893 14.8872C131.893 10.8455 135.136 7.62587 139.268 7.62587C143.167 7.62587 146.41 10.8455 146.41 14.8882C146.4 19.3874 143.158 22.5801 139.184 22.5801V22.5791ZM149.127 4.86179C146.438 2.22058 142.923 0.7831 139.222 0.7831C135.276 0.7831 131.847 2.14566 129.119 4.82483C126.392 7.503 124.902 11.0043 124.902 14.8123C124.902 18.892 126.233 22.3084 128.837 25.0724C131.575 27.9474 135.079 29.4218 139.175 29.4218C143.036 29.4218 146.7 27.9104 149.39 25.1104C152.005 22.4302 153.411 18.892 153.411 14.9351C153.421 11.1531 151.939 7.61588 149.128 4.86179H149.127ZM4.1857 25.0624C6.91248 27.9374 10.3905 29.4508 14.4856 29.4508C19.208 29.4508 23.6513 27.1163 26.303 23.2703C27.9055 20.9358 28.6837 18.2946 28.6837 15.1869C28.6837 14.6075 28.6457 13.9822 28.6087 13.3558H12.8082V18.873H20.7274C19.358 21.2824 17.0624 22.607 14.4856 22.607C10.6615 22.607 7.23157 19.2286 7.23157 14.8313C7.23157 10.8644 10.4275 7.56893 14.4856 7.56893C16.6693 7.56893 18.4588 8.46598 20.1833 10.2491H27.9055C25.6848 4.33934 20.4934 0.72616 14.5697 0.72616C10.6335 0.72616 7.20256 2.12668 4.46678 4.80585C1.74 7.48602 0.259578 10.9863 0.259578 14.7943C0.249575 18.883 1.57095 22.2994 4.1857 25.0634V25.0624ZM38.5055 14.0291H37.1831V7.46604H39.0576C42.0565 7.46604 43.4999 8.40005 43.4999 10.6876C43.4999 13.171 41.8594 14.0291 38.5055 14.0291ZM44.0811 19.4244C48.0172 18.3326 50.3609 14.9991 50.3609 10.5288C50.3609 7.11241 49.0755 4.50716 46.6118 2.79897C44.7373 1.48236 42.5166 1.28657 39.5918 1.28657H30.3892V28.9084H37.1741V20.0128L42.4786 28.9084H50.866L44.0811 19.4244ZM180.645 1.42642C181.001 1.07279 181.422 0.894982 181.919 0.894982C182.416 0.894982 182.847 1.07279 183.194 1.42642C183.541 1.77305 183.719 2.2016 183.719 2.69508C183.719 3.19155 183.541 3.6211 183.194 3.97573C182.847 4.32935 182.426 4.50716 181.919 4.50716C181.422 4.50716 180.991 4.32935 180.645 3.97573C180.297 3.6211 180.12 3.20055 180.12 2.69608C180.12 2.2016 180.289 1.78204 180.645 1.42742V1.42642ZM181.909 4.78787C182.492 4.78787 182.988 4.58209 183.39 4.17152C183.803 3.76095 184 3.26548 184 2.69608C184 2.11669 183.794 1.6322 183.39 1.22963C182.988 0.829051 182.492 0.624268 181.909 0.624268C181.338 0.624268 180.841 0.829051 180.439 1.22963C180.026 1.64219 179.829 2.12668 179.829 2.69608C179.829 3.27447 180.036 3.76994 180.439 4.17152C180.841 4.58109 181.329 4.78787 181.909 4.78787Z" fill="#222222"/>
<path fill-rule="evenodd" clip-rule="evenodd" d="M182.228 2.59322C182.144 2.63118 182.012 2.64116 181.844 2.64116H181.479V1.81004H181.825C182.05 1.81004 182.21 1.83801 182.312 1.89395C182.415 1.9499 182.462 2.06178 182.462 2.2296C182.462 2.4164 182.378 2.53927 182.228 2.59322ZM182.837 3.79794C182.828 3.77796 182.818 3.741 182.818 3.67707C182.818 3.62113 182.808 3.5562 182.808 3.50925V3.33943C182.808 3.22954 182.772 3.10767 182.687 2.9848C182.603 2.86493 182.472 2.79001 182.294 2.76104C182.434 2.74306 182.547 2.7051 182.622 2.64916C182.772 2.55625 182.847 2.39742 182.847 2.20163C182.847 1.91194 182.725 1.71614 182.49 1.62324C182.359 1.5663 182.154 1.53833 181.862 1.53833H181.057V3.82591H181.46V2.92986H181.778C181.994 2.92986 182.144 2.95783 182.228 3.00478C182.378 3.08869 182.444 3.2665 182.444 3.52723V3.70504L182.453 3.77896V3.80793C182.453 3.81692 182.453 3.82591 182.463 3.82591H182.837V3.79794Z" fill="#222222"/>
</svg>
