<svg width="27" height="27" viewBox="0 0 27 27" fill="none" xmlns="http://www.w3.org/2000/svg">
<path d="M13.688 26.324C11.864 26.324 10.16 26 8.576 25.352C6.992 24.68 5.6 23.756 4.4 22.58C3.224 21.38 2.3 19.988 1.628 18.404C0.98 16.82 0.656 15.116 0.656 13.292C0.656 11.444 0.98 9.74 1.628 8.18C2.3 6.596 3.224 5.216 4.4 4.04C5.6 2.864 6.98 1.952 8.54 1.304C10.124 0.631998 11.84 0.295998 13.688 0.295998C15.536 0.295998 17.24 0.631998 18.8 1.304C20.384 1.952 21.764 2.864 22.94 4.04C24.116 5.216 25.028 6.596 25.676 8.18C26.348 9.74 26.684 11.444 26.684 13.292C26.684 15.116 26.348 16.82 25.676 18.404C25.028 19.988 24.116 21.38 22.94 22.58C21.764 23.756 20.384 24.68 18.8 25.352C17.24 26 15.536 26.324 13.688 26.324ZM13.688 24.74C15.296 24.74 16.784 24.452 18.152 23.876C19.544 23.3 20.744 22.496 21.752 21.464C22.784 20.408 23.588 19.196 24.164 17.828C24.74 16.436 25.028 14.924 25.028 13.292C25.028 11.66 24.74 10.16 24.164 8.792C23.588 7.4 22.784 6.188 21.752 5.156C20.744 4.124 19.544 3.32 18.152 2.744C16.784 2.168 15.296 1.88 13.688 1.88C12.056 1.88 10.544 2.168 9.152 2.744C7.784 3.32 6.584 4.124 5.552 5.156C4.544 6.188 3.752 7.4 3.176 8.792C2.6 10.16 2.312 11.66 2.312 13.292C2.312 14.924 2.6 16.436 3.176 17.828C3.752 19.196 4.544 20.408 5.552 21.464C6.584 22.496 7.784 23.3 9.152 23.876C10.544 24.452 12.056 24.74 13.688 24.74ZM9.692 21.104C8.9 21.104 8.504 20.684 8.504 19.844V7.136C8.504 6.68 8.624 6.332 8.864 6.092C9.104 5.828 9.464 5.696 9.944 5.696H14.66C16.292 5.696 17.54 6.092 18.404 6.884C19.292 7.652 19.736 8.72 19.736 10.088C19.736 11.48 19.292 12.548 18.404 13.292C17.54 14.012 16.316 14.372 14.732 14.372L15.164 14.012C15.884 14.012 16.484 14.168 16.964 14.48C17.444 14.768 17.84 15.344 18.152 16.208L19.412 19.52C19.604 20.024 19.58 20.42 19.34 20.708C19.1 20.972 18.764 21.104 18.332 21.104C18.044 21.104 17.804 21.02 17.612 20.852C17.42 20.66 17.288 20.432 17.216 20.168L15.704 16.208C15.488 15.608 15.152 15.212 14.696 15.02C14.264 14.804 13.736 14.696 13.112 14.696H10.412L10.88 14.336V19.844C10.88 20.684 10.484 21.104 9.692 21.104ZM10.88 12.752H14.372C15.38 12.752 16.136 12.548 16.64 12.14C17.144 11.732 17.396 11.084 17.396 10.196C17.396 9.308 17.144 8.66 16.64 8.252C16.16 7.844 15.404 7.64 14.372 7.64H10.88V12.752Z" fill="#222222"/>
</svg>
