<svg width="234" height="23" viewBox="0 0 234 23" fill="none" xmlns="http://www.w3.org/2000/svg">
<path fill-rule="evenodd" clip-rule="evenodd" d="M38.4668 14.4568C38.6279 14.5989 38.716 14.808 38.7069 15.0252C38.7069 15.6371 38.3568 15.9426 37.6605 15.9426H31.6639C31.2037 15.971 30.8055 15.6148 30.7785 15.1469C30.7765 15.1185 30.7765 15.0891 30.7775 15.0597C30.7775 14.745 30.9055 14.4467 31.1306 14.2325L36.0808 8.82937H32.2491C31.999 8.84662 31.7499 8.77355 31.5488 8.62132C31.3847 8.47416 31.2967 8.25901 31.3087 8.03676C31.3087 7.43697 31.6569 7.13657 32.3552 7.13657H38.0857C38.3278 7.12439 38.5649 7.21979 38.733 7.39739C38.889 7.56484 38.9751 7.78811 38.9721 8.0195C38.9661 8.33614 38.838 8.63959 38.6179 8.86489L33.6858 14.2498H37.7655C38.0156 14.2325 38.2658 14.3056 38.4668 14.4568ZM41.6332 10.7373H45.678C45.731 10.1436 45.567 9.54993 45.2168 9.07294C44.8767 8.68424 44.3794 8.47619 43.8682 8.50563C42.6147 8.50563 41.8703 9.24953 41.6332 10.7383V10.7373ZM47.3557 11.737C47.2157 11.876 47.0256 11.9521 46.8315 11.944H41.5632C41.5482 12.6098 41.7853 13.2542 42.2265 13.7454C42.6997 14.1777 43.323 14.398 43.9572 14.3584C44.3374 14.3635 44.7176 14.3117 45.0837 14.2062C45.4359 14.0955 45.773 13.9423 46.0862 13.7454C46.2212 13.6662 46.3733 13.6236 46.5294 13.6196C46.7125 13.6114 46.8895 13.6957 46.9996 13.8449C47.1146 14.0042 47.1747 14.197 47.1677 14.3939C47.1697 14.739 47.0036 15.0627 46.7245 15.2586C46.3393 15.5306 45.9101 15.7325 45.4559 15.8533C44.9217 16.0096 44.3704 16.0887 43.8152 16.0867C43.0098 16.106 42.2125 15.9233 41.4912 15.5559C40.8449 15.219 40.3117 14.6943 39.9565 14.0519C39.5843 13.3567 39.3973 12.5732 39.4163 11.7816C39.4013 10.9129 39.5903 10.0523 39.9655 9.27084C40.3087 8.55738 40.8439 7.95861 41.5092 7.5415C42.1935 7.12134 42.9798 6.90518 43.7802 6.91938C44.8246 6.85443 45.8451 7.25531 46.5744 8.01849C47.2797 8.89939 47.6319 10.0178 47.5588 11.1524C47.5728 11.3676 47.4968 11.5787 47.3547 11.737H47.3557ZM56.4847 7.72113C57.03 8.3808 57.3001 9.23126 57.2401 10.0898C57.2401 10.3172 57.2331 10.4917 57.2201 10.6125L56.8659 14.9703C56.8579 15.2728 56.7298 15.558 56.5107 15.7619C56.2856 15.9598 55.9925 16.0623 55.6954 16.0512C55.4023 16.0695 55.1141 15.9649 54.896 15.763C54.701 15.5498 54.6089 15.2586 54.6489 14.9703L55.0041 10.7028C55.0981 9.36928 54.5779 8.70353 53.4434 8.70353C52.8731 8.67105 52.3179 8.88722 51.9167 9.29722C51.5236 9.75899 51.2985 10.3436 51.2785 10.9545L50.9413 14.9703C50.9333 15.2728 50.8052 15.558 50.5862 15.7619C50.3611 15.9598 50.0679 16.0623 49.7708 16.0512C49.4807 16.0705 49.1925 15.9659 48.9804 15.763C48.7904 15.5468 48.6963 15.2586 48.7233 14.9703L49.2916 7.98195C49.2926 7.69271 49.4236 7.41769 49.6457 7.23501C49.8828 7.04523 50.179 6.94679 50.4801 6.95592C50.7552 6.93968 51.0233 7.03711 51.2254 7.22587C51.4065 7.4187 51.4855 7.68561 51.4385 7.94643L51.4195 8.28844C51.7216 7.85205 52.1308 7.50395 52.609 7.27966C53.1303 7.03508 53.7005 6.91126 54.2768 6.9204C55.0911 6.86052 55.8925 7.15179 56.4847 7.72215V7.72113ZM21.5774 6.67176C20.6731 5.25703 18.8683 4.75162 17.3766 5.49451C15.7839 6.31655 15.1486 8.2925 15.956 9.90919C16.4172 10.8307 17.2786 11.4792 18.281 11.6588C18.159 15.5559 14.9475 18.6168 11.1069 18.493C7.37723 18.3732 4.40493 15.287 4.37091 11.4985C4.36491 8.57971 6.15169 5.96744 8.84888 4.9546C9.3671 4.76481 9.66723 4.21374 9.54718 3.66673L9.53918 3.63323C9.40712 3.03446 9.77728 2.44178 10.3655 2.3068C10.4136 2.29665 10.4626 2.28853 10.5116 2.28447C10.7817 2.2591 11.0548 2.24591 11.328 2.24591C11.6661 2.24591 12.0053 2.2662 12.3404 2.30274C12.9487 2.37074 13.4969 1.92419 13.5619 1.30817C13.5649 1.28787 13.5669 1.26554 13.5679 1.24525C13.5839 0.633279 13.1257 0.11468 12.5255 0.0639368C12.1273 0.0202974 11.7271 0 11.328 0C5.07222 0 0 5.14945 0 11.5005C0 17.8526 5.07222 23 11.328 23C17.5847 23 22.6559 17.8526 22.6559 11.5005C22.6559 10.376 22.4328 7.95252 21.5774 6.67176Z" fill="#AAAAAA"/>
<path fill-rule="evenodd" clip-rule="evenodd" d="M15.6008 0.872559C16.2481 0.872559 16.7743 1.40638 16.7743 2.06402C16.7743 2.72165 16.2481 3.25547 15.6008 3.25547C14.9525 3.25547 14.4273 2.72165 14.4273 2.06402C14.4273 1.40638 14.9525 0.872559 15.6008 0.872559ZM66.1169 10.4113C66.7642 10.4113 67.2905 10.9441 67.2905 11.6028C67.2905 12.2604 66.7642 12.7942 66.1169 12.7942C65.4687 12.7942 64.9424 12.2604 64.9424 11.6028C64.9424 10.9431 65.4687 10.4113 66.1169 10.4113ZM80.9374 7.6113C81.0535 7.74018 81.1125 7.90053 81.1125 8.09133C81.1125 8.33997 81.0225 8.55817 80.8454 8.74998L75.8262 14.3348H80.1151C80.3372 14.3348 80.5082 14.3916 80.6303 14.5043C80.7514 14.6169 80.8134 14.7682 80.8134 14.96C80.8134 15.1843 80.7464 15.3558 80.6133 15.4745C80.4812 15.5922 80.2861 15.6511 80.032 15.6511H74.2485C74.0354 15.6511 73.8723 15.5902 73.7573 15.4654C73.6412 15.3436 73.5832 15.1843 73.5832 14.9935C73.5832 14.7692 73.6713 14.5611 73.8483 14.3693L78.8855 8.73374H74.8788C74.6567 8.73374 74.4856 8.67691 74.3636 8.56426C74.2435 8.45161 74.1815 8.30039 74.1815 8.10858C74.1815 7.64682 74.4366 7.41746 74.9458 7.41746H80.4482C80.6583 7.41746 80.8214 7.48139 80.9384 7.61028L80.9374 7.6113ZM84.406 9.07068C84.0058 9.47663 83.7507 10.0653 83.6406 10.8426H87.9285C87.9515 10.0663 87.7924 9.47561 87.4553 9.07068C87.1171 8.66473 86.6379 8.46379 86.0177 8.46379C85.3414 8.46379 84.8041 8.66575 84.406 9.07068ZM89.2181 11.6434C89.1 11.7621 88.9439 11.821 88.7429 11.821H83.5736C83.5856 12.6532 83.7957 13.2976 84.2059 13.7543C84.616 14.209 85.2083 14.4373 85.9836 14.4373C86.759 14.4373 87.4793 14.212 88.1446 13.7614C88.2666 13.6822 88.3887 13.6437 88.5107 13.6437C88.6658 13.6437 88.7929 13.7056 88.8919 13.8294C88.992 13.9532 89.042 14.0983 89.042 14.2678C89.042 14.5276 88.9319 14.7458 88.7108 14.9265C88.4107 15.1731 87.9985 15.3761 87.4723 15.5334C86.9451 15.6917 86.4168 15.7698 85.8846 15.7698C85.0863 15.7698 84.3879 15.6064 83.7907 15.2807C83.1904 14.9539 82.7302 14.487 82.4021 13.8801C82.0749 13.2712 81.9119 12.57 81.9119 11.7712C81.9119 10.8812 82.0799 10.0916 82.4191 9.3995C82.7562 8.70736 83.2294 8.1715 83.8397 7.7889C84.449 7.40629 85.1533 7.21347 85.9506 7.21347C87.0591 7.21347 87.9095 7.54837 88.5017 8.21819C89.094 8.888 89.3921 9.85822 89.3921 11.1288C89.3921 11.3541 89.3331 11.5256 89.2171 11.6434H89.2181ZM96.3302 7.38295C96.4582 7.4956 96.5223 7.65899 96.5223 7.87212C96.5223 8.3897 96.2451 8.67082 95.6909 8.71547L95.2427 8.76622C94.4774 8.84538 93.9101 9.07068 93.538 9.44111C93.1678 9.81255 92.9547 10.3596 92.8977 11.0791L92.5825 14.9255C92.5605 15.2066 92.4665 15.4126 92.3004 15.5415C92.1333 15.6714 91.9282 15.7363 91.6851 15.7363C91.441 15.7363 91.2449 15.6683 91.0949 15.5334C90.9458 15.3984 90.8818 15.1964 90.9048 14.9255L91.452 8.02435C91.463 7.77672 91.5581 7.58592 91.7352 7.44993C91.9122 7.31597 92.1173 7.24899 92.3494 7.24899C92.5715 7.24899 92.7476 7.31292 92.8817 7.44181C93.0147 7.57172 93.0758 7.75947 93.0648 8.00709L93.0147 8.70025C93.568 7.83355 94.4444 7.35555 95.6409 7.26522L95.825 7.24899C96.035 7.22666 96.2041 7.27131 96.3302 7.38295ZM102.501 13.5422C102.911 12.9576 103.118 12.1711 103.118 11.1796C103.118 10.3362 102.925 9.69178 102.544 9.24727C102.162 8.80377 101.614 8.58151 100.907 8.58151C100.13 8.58151 99.5366 8.87379 99.1264 9.45836C98.7182 10.0439 98.5131 10.8315 98.5131 11.821C98.5131 12.6765 98.7042 13.323 99.0854 13.7624C99.4686 14.1998 100.019 14.4201 100.739 14.4201C101.505 14.4201 102.092 14.1268 102.501 13.5422ZM98.6612 15.2807C98.0749 14.9549 97.6207 14.4881 97.2996 13.8801C96.9775 13.2712 96.8174 12.57 96.8174 11.7702C96.8174 10.8467 96.9865 10.045 97.3246 9.35789C97.6618 8.67183 98.139 8.14309 98.7532 7.77165C99.3685 7.4002 100.081 7.21448 100.889 7.21448C101.687 7.21448 102.38 7.37991 102.966 7.71177C103.554 8.04464 104.009 8.51149 104.33 9.11229C104.652 9.71411 104.812 10.4215 104.812 11.2303C104.812 12.1528 104.644 12.9556 104.306 13.6356C103.966 14.3155 103.49 14.8422 102.875 15.2127C102.261 15.5841 101.544 15.7698 100.724 15.7698C99.9368 15.7698 99.2495 15.6064 98.6612 15.2807ZM113.073 9.07068C112.674 9.47663 112.419 10.0653 112.308 10.8426H116.597C116.619 10.0663 116.461 9.47561 116.123 9.07068C115.786 8.66473 115.305 8.46379 114.685 8.46379C114.009 8.46379 113.472 8.66575 113.073 9.07068ZM117.885 11.6434C117.769 11.7621 117.61 11.821 117.41 11.821H112.242C112.253 12.6532 112.463 13.2976 112.874 13.7543C113.283 14.209 113.877 14.4373 114.653 14.4373C115.429 14.4373 116.147 14.212 116.812 13.7614C116.934 13.6822 117.057 13.6437 117.178 13.6437C117.333 13.6437 117.46 13.7056 117.561 13.8294C117.661 13.9532 117.71 14.0983 117.71 14.2678C117.71 14.5276 117.599 14.7458 117.377 14.9265C117.078 15.1731 116.666 15.3761 116.14 15.5334C115.615 15.6917 115.084 15.7698 114.552 15.7698C113.754 15.7698 113.055 15.6064 112.458 15.2807C111.86 14.9539 111.396 14.487 111.071 13.8801C110.743 13.2712 110.58 12.57 110.58 11.7712C110.58 10.8812 110.748 10.0916 111.087 9.3995C111.426 8.70736 111.899 8.1715 112.507 7.7889C113.118 7.40629 113.821 7.21347 114.618 7.21347C115.726 7.21347 116.578 7.54837 117.17 8.21819C117.763 8.888 118.059 9.85822 118.059 11.1288C118.059 11.3541 118.002 11.5256 117.885 11.6434ZM122.86 5.59475C122.577 5.90936 122.408 6.3762 122.353 6.99527L122.319 7.41746H123.965C124.187 7.41746 124.355 7.47327 124.471 7.58592C124.588 7.69756 124.647 7.84979 124.647 8.04059C124.647 8.50235 124.391 8.73273 123.882 8.73273H122.22L121.737 14.9255C121.726 15.1964 121.635 15.3984 121.464 15.5344C121.291 15.6683 121.09 15.7374 120.857 15.7374C120.624 15.7374 120.431 15.6683 120.275 15.5344C120.12 15.3984 120.048 15.1964 120.06 14.9255L120.541 8.73273H119.56C119.339 8.73273 119.167 8.67691 119.045 8.56426C118.922 8.45161 118.862 8.30039 118.862 8.10858C118.862 7.8843 118.928 7.71278 119.062 7.59404C119.194 7.4753 119.388 7.41746 119.642 7.41746H120.642L120.658 7.19723C120.835 5.0386 121.981 3.89078 124.097 3.7558L124.447 3.73855C125.034 3.70506 125.328 3.90195 125.328 4.32921C125.328 4.54233 125.268 4.70674 125.145 4.81837C125.023 4.93102 124.846 4.99801 124.615 5.02033L124.164 5.05382C123.577 5.09949 123.142 5.28014 122.86 5.59475ZM129.278 5.59475C128.994 5.90936 128.825 6.3762 128.769 6.99527L128.736 7.41746H130.382C130.605 7.41746 130.773 7.47327 130.889 7.58592C131.005 7.69756 131.063 7.84979 131.063 8.04059C131.063 8.50235 130.808 8.73273 130.3 8.73273H128.637L128.155 14.9255C128.144 15.1964 128.053 15.3984 127.881 15.5344C127.709 15.6683 127.507 15.7374 127.274 15.7374C127.042 15.7374 126.848 15.6683 126.692 15.5344C126.537 15.3984 126.465 15.1964 126.476 14.9255L126.959 8.73273H125.978C125.757 8.73273 125.584 8.67691 125.463 8.56426C125.34 8.45161 125.279 8.30039 125.279 8.10858C125.279 7.8843 125.346 7.71278 125.479 7.59404C125.611 7.4753 125.806 7.41746 126.061 7.41746H127.059L127.076 7.19723C127.253 5.0386 128.399 3.89078 130.515 3.7558L130.864 3.73855C131.452 3.70506 131.745 3.90195 131.745 4.32921C131.745 4.54233 131.685 4.70674 131.563 4.81837C131.44 4.93102 131.262 4.99801 131.031 5.02033L130.581 5.05382C129.995 5.09949 129.561 5.28014 129.278 5.59475ZM137.13 13.5422C137.54 12.9576 137.745 12.1711 137.745 11.1796C137.745 10.3362 137.555 9.69178 137.172 9.24727C136.79 8.80377 136.244 8.58151 135.535 8.58151C134.758 8.58151 134.167 8.87379 133.756 9.45836C133.345 10.0439 133.142 10.8315 133.142 11.821C133.142 12.6765 133.332 13.323 133.715 13.7624C134.098 14.1998 134.648 14.4201 135.368 14.4201C136.134 14.4201 136.719 14.1268 137.13 13.5422ZM133.29 15.2807C132.703 14.9549 132.25 14.4881 131.928 13.8801C131.608 13.2712 131.446 12.57 131.446 11.7702C131.446 10.8467 131.616 10.045 131.953 9.35789C132.29 8.67183 132.767 8.14309 133.383 7.77165C133.997 7.4002 134.71 7.21448 135.517 7.21448C136.316 7.21448 137.008 7.37991 137.595 7.71177C138.184 8.04464 138.636 8.51149 138.959 9.11229C139.28 9.71411 139.441 10.4215 139.441 11.2303C139.441 12.1528 139.271 12.9556 138.934 13.6356C138.596 14.3155 138.118 14.8422 137.503 15.2127C136.89 15.5841 136.173 15.7698 135.352 15.7698C134.565 15.7698 133.879 15.6064 133.291 15.2807H133.29ZM146.381 7.38295C146.509 7.4956 146.573 7.65899 146.573 7.87212C146.573 8.3897 146.295 8.67082 145.743 8.71547L145.293 8.76622C144.529 8.84538 143.961 9.07068 143.589 9.44111C143.219 9.81255 143.006 10.3596 142.95 11.0791L142.633 14.9255C142.611 15.2066 142.517 15.4126 142.352 15.5415C142.184 15.6714 141.98 15.7363 141.737 15.7363C141.492 15.7363 141.297 15.6683 141.145 15.5334C140.997 15.3984 140.933 15.1964 140.956 14.9255L141.504 8.02435C141.515 7.77672 141.609 7.58592 141.787 7.44993C141.963 7.31597 142.168 7.24899 142.4 7.24899C142.622 7.24899 142.8 7.31292 142.934 7.44181C143.066 7.57172 143.128 7.75947 143.115 8.00709L143.066 8.70025C143.619 7.83355 144.494 7.35555 145.693 7.26522L145.875 7.24899C146.085 7.22666 146.255 7.27131 146.381 7.38295ZM150.206 12.5974C150.195 12.6643 150.19 12.7658 150.19 12.9018C150.19 13.4072 150.303 13.7919 150.531 14.0567C150.757 14.3216 151.076 14.4525 151.486 14.4525C151.619 14.4525 151.751 14.4444 151.883 14.4292C152.018 14.4109 152.124 14.4038 152.201 14.4038C152.333 14.4038 152.44 14.4566 152.517 14.5632C152.594 14.6707 152.633 14.8189 152.633 15.0097C152.633 15.2918 152.526 15.4887 152.309 15.6014C152.093 15.713 151.712 15.7698 151.17 15.7698C150.328 15.7698 149.674 15.5334 149.208 15.0615C148.743 14.5875 148.51 13.9248 148.51 13.0693C148.51 12.8896 148.516 12.7496 148.528 12.6471L148.827 8.73374H147.846C147.624 8.73374 147.453 8.67691 147.331 8.56426C147.208 8.45262 147.147 8.2943 147.147 8.09133C147.147 7.87821 147.214 7.71278 147.348 7.59404C147.481 7.47632 147.674 7.41644 147.928 7.41644H148.926L149.058 5.66173C149.081 5.42628 149.175 5.23548 149.342 5.08731C149.508 4.94219 149.713 4.86912 149.958 4.86912C150.212 4.86912 150.41 4.94219 150.555 5.08731C150.7 5.23548 150.759 5.43237 150.738 5.67898L150.604 7.41644H152.251C152.461 7.41644 152.627 7.47327 152.751 7.58491C152.871 7.69756 152.931 7.84877 152.931 8.0416C152.931 8.50337 152.677 8.73374 152.168 8.73374H150.505L150.206 12.5974ZM165.007 7.94011C165.477 8.42421 165.714 9.13766 165.714 10.0835C165.714 10.3088 165.709 10.4773 165.697 10.5899L165.364 14.9255C165.341 15.1843 165.25 15.3842 165.09 15.5253C164.93 15.6653 164.723 15.7363 164.467 15.7363C164.213 15.7363 164.013 15.6653 163.869 15.5253C163.725 15.3842 163.664 15.1843 163.686 14.9265L164.02 10.6742C164.029 10.595 164.035 10.4773 164.035 10.319C164.035 9.17217 163.493 8.59775 162.407 8.59775C161.719 8.59775 161.174 8.8058 160.769 9.22189C160.364 9.63799 160.135 10.2185 160.079 10.9604L159.763 14.9255C159.741 15.1843 159.65 15.3842 159.49 15.5253C159.328 15.6653 159.12 15.7363 158.866 15.7363C158.611 15.7363 158.413 15.6653 158.275 15.5253C158.137 15.3842 158.073 15.1843 158.085 14.9265L158.633 8.02536C158.644 7.7889 158.738 7.59912 158.917 7.45906C159.094 7.318 159.304 7.24797 159.547 7.24797C159.779 7.24797 159.963 7.31597 160.096 7.45095C160.229 7.58592 160.289 7.77165 160.279 8.00709L160.229 8.59775C160.506 8.15933 160.879 7.81934 161.352 7.57781C161.822 7.33525 162.352 7.21448 162.938 7.21448C163.847 7.21448 164.537 7.45602 165.007 7.94011ZM173.046 13.5422C173.457 12.9576 173.662 12.1711 173.662 11.1796C173.662 10.3362 173.47 9.69178 173.088 9.24727C172.708 8.80377 172.159 8.58151 171.451 8.58151C170.675 8.58151 170.082 8.87379 169.671 9.45836C169.263 10.0439 169.057 10.8315 169.057 11.821C169.057 12.6765 169.248 13.323 169.63 13.7624C170.013 14.1998 170.565 14.4201 171.284 14.4201C172.049 14.4201 172.637 14.1268 173.047 13.5422H173.046ZM169.207 15.2807C168.621 14.9549 168.165 14.4881 167.843 13.8801C167.523 13.2712 167.363 12.57 167.363 11.7702C167.363 10.8467 167.531 10.045 167.868 9.35789C168.208 8.67183 168.683 8.14309 169.299 7.77165C169.914 7.4002 170.626 7.21448 171.435 7.21448C172.232 7.21448 172.926 7.37991 173.511 7.71177C174.099 8.04464 174.553 8.51149 174.875 9.11229C175.197 9.71411 175.357 10.4215 175.357 11.2303C175.357 12.1528 175.189 12.9556 174.851 13.6356C174.511 14.3155 174.035 14.8422 173.42 15.2127C172.806 15.5841 172.088 15.7698 171.268 15.7698C170.482 15.7698 169.794 15.6064 169.207 15.2807ZM183.784 7.94011C184.255 8.42421 184.491 9.13766 184.491 10.0835C184.491 10.3088 184.485 10.4773 184.474 10.5899L184.142 14.9255C184.119 15.1843 184.027 15.3842 183.868 15.5253C183.707 15.6653 183.498 15.7363 183.243 15.7363C182.989 15.7363 182.79 15.6653 182.645 15.5253C182.501 15.3842 182.441 15.1843 182.462 14.9265L182.795 10.6742C182.805 10.595 182.811 10.4773 182.811 10.319C182.811 9.17217 182.269 8.59775 181.183 8.59775C180.496 8.59775 179.951 8.8058 179.546 9.22189C179.14 9.63799 178.912 10.2185 178.855 10.9604L178.54 14.9255C178.518 15.1843 178.426 15.3842 178.266 15.5253C178.106 15.6653 177.897 15.7363 177.642 15.7363C177.387 15.7363 177.191 15.6653 177.053 15.5253C176.913 15.3842 176.849 15.1843 176.861 14.9265L177.409 8.02536C177.421 7.7889 177.516 7.59912 177.692 7.45906C177.87 7.318 178.08 7.24797 178.323 7.24797C178.556 7.24797 178.739 7.31597 178.873 7.45095C179.006 7.58592 179.066 7.77165 179.055 8.00709L179.005 8.59775C179.281 8.15933 179.657 7.81934 180.127 7.57781C180.597 7.33525 181.127 7.21448 181.715 7.21448C182.623 7.21448 183.313 7.45602 183.784 7.94011ZM192.249 13.5767C192.664 13.0134 192.871 12.2371 192.871 11.2476C192.871 10.3931 192.677 9.7344 192.29 9.27264C191.902 8.81189 191.35 8.58151 190.628 8.58151C189.898 8.58151 189.321 8.86568 188.9 9.43299C188.48 10.0013 188.268 10.7757 188.268 11.753C188.268 12.6207 188.463 13.2814 188.851 13.736C189.238 14.1927 189.791 14.4201 190.511 14.4201C191.255 14.4201 191.834 14.1389 192.249 13.5767ZM192.93 7.70365C193.457 8.03044 193.864 8.49423 194.151 9.09605C194.441 9.69787 194.584 10.3981 194.584 11.1968C194.584 12.097 194.423 12.8927 194.102 13.5848C193.782 14.277 193.329 14.8148 192.747 15.1964C192.165 15.578 191.497 15.7688 190.746 15.7688C190.114 15.7688 189.567 15.6349 189.108 15.3649C188.649 15.0949 188.295 14.7123 188.052 14.2171L188.002 14.9255C187.991 15.1843 187.903 15.3842 187.736 15.5253C187.57 15.6653 187.364 15.7363 187.122 15.7363C186.877 15.7363 186.684 15.6653 186.54 15.5253C186.395 15.3842 186.33 15.1843 186.34 14.9265L187.171 4.44693C187.182 4.21047 187.276 4.02069 187.454 3.87353C187.631 3.72739 187.842 3.6533 188.085 3.6533C188.328 3.6533 188.521 3.7213 188.658 3.85628C188.798 3.99125 188.861 4.17698 188.851 4.41344L188.518 8.54701C188.794 8.13091 189.163 7.80615 189.623 7.56867C190.083 7.33221 190.583 7.21448 191.127 7.21448C191.803 7.21448 192.403 7.37788 192.93 7.70365ZM200.548 13.8801C200.947 13.4641 201.173 12.9292 201.228 12.2767L201.263 11.8047H200.797C199.977 11.8047 199.334 11.8494 198.869 11.9397C198.403 12.029 198.072 12.1762 197.872 12.3771C197.672 12.5801 197.572 12.8622 197.572 13.2215C197.572 13.6153 197.708 13.9278 197.98 14.1582C198.252 14.3886 198.62 14.5033 199.085 14.5033C199.66 14.5033 200.149 14.2962 200.549 13.8801H200.548ZM202.992 10.117C202.992 10.3301 202.986 10.4945 202.974 10.6062L202.644 14.96C202.631 15.2076 202.551 15.3984 202.401 15.5344C202.251 15.6683 202.054 15.7374 201.81 15.7374C201.567 15.7374 201.373 15.6602 201.229 15.508C201.086 15.3558 201.024 15.1619 201.047 14.9255L201.079 14.3521C200.847 14.8138 200.527 15.164 200.116 15.4065C199.705 15.6481 199.228 15.7698 198.687 15.7698C197.877 15.7698 197.209 15.5476 196.684 15.1031C196.157 14.6586 195.895 14.0882 195.895 13.391C195.895 12.7607 196.054 12.2624 196.377 11.8971C196.697 11.5317 197.209 11.2648 197.914 11.0953C198.617 10.9269 199.562 10.8416 200.747 10.8416H201.346L201.379 10.4205C201.423 9.77906 201.311 9.31019 201.047 9.01182C200.782 8.71345 200.349 8.56426 199.75 8.56426C199.018 8.56426 198.21 8.8129 197.323 9.30714C197.223 9.36296 197.113 9.39138 196.991 9.39138C196.825 9.39138 196.687 9.32947 196.575 9.20566C196.465 9.08184 196.409 8.9357 196.409 8.76723C196.409 8.49728 196.548 8.27198 196.825 8.09234C197.223 7.82239 197.697 7.60825 198.246 7.44993C198.794 7.29263 199.351 7.21448 199.917 7.21448C201.965 7.21448 202.992 8.18267 202.992 10.117ZM211.773 7.94011C212.243 8.42421 212.479 9.13766 212.479 10.0835C212.479 10.3088 212.473 10.4773 212.462 10.5899L212.13 14.9255C212.107 15.1843 212.016 15.3842 211.855 15.5253C211.695 15.6653 211.488 15.7363 211.231 15.7363C210.977 15.7363 210.777 15.6653 210.634 15.5253C210.489 15.3842 210.428 15.1843 210.45 14.9265L210.783 10.6742C210.793 10.595 210.799 10.4773 210.799 10.319C210.799 9.17217 210.257 8.59775 209.171 8.59775C208.484 8.59775 207.938 8.8058 207.533 9.22189C207.13 9.63799 206.899 10.2185 206.844 10.9604L206.528 14.9255C206.506 15.1843 206.415 15.3842 206.254 15.5253C206.092 15.6653 205.885 15.7363 205.631 15.7363C205.376 15.7363 205.179 15.6653 205.041 15.5253C204.903 15.3842 204.838 15.1843 204.85 14.9265L205.398 8.02536C205.408 7.7889 205.503 7.59912 205.68 7.45906C205.858 7.318 206.068 7.24797 206.311 7.24797C206.544 7.24797 206.728 7.31597 206.861 7.45095C206.994 7.58592 207.054 7.77165 207.045 8.00709L206.995 8.59775C207.27 8.15933 207.645 7.81934 208.115 7.57781C208.586 7.33525 209.116 7.21448 209.704 7.21448C210.612 7.21448 211.302 7.45602 211.773 7.94011ZM221.11 14.4535C221.243 14.5875 221.31 14.7509 221.31 14.9427C221.31 15.1457 221.223 15.3304 221.052 15.4999C220.879 15.6694 220.69 15.7536 220.479 15.7536C220.278 15.7536 220.101 15.6694 219.946 15.4999L216.273 11.8037L216.023 14.9427C216.001 15.2025 215.907 15.3994 215.741 15.5334C215.575 15.6694 215.376 15.7363 215.143 15.7363C214.899 15.7363 214.699 15.6633 214.545 15.5161C214.389 15.37 214.323 15.168 214.345 14.9092L215.16 4.46418C215.17 4.20539 215.264 4.00851 215.44 3.87251C215.618 3.73855 215.824 3.66954 216.057 3.66954C216.301 3.66954 216.495 3.74058 216.639 3.88165C216.782 4.02272 216.85 4.2267 216.837 4.49767L216.324 11.0943L220.245 7.53417C220.4 7.37788 220.578 7.29872 220.778 7.29872C220.978 7.29872 221.151 7.37483 221.302 7.52706C221.451 7.67929 221.525 7.84979 221.525 8.0416C221.525 8.24356 221.442 8.42319 221.276 8.58151L218.118 11.3998L221.11 14.4535ZM233.882 3.80046C233.974 3.89383 234.012 4.0217 233.996 4.18611L233.686 8.14207C233.663 8.49931 233.495 8.67894 233.18 8.67894C233.035 8.67894 232.924 8.63428 232.848 8.54498C232.772 8.45465 232.739 8.3217 232.756 8.14207L232.95 5.62114L231.814 7.56969C231.736 7.69452 231.659 7.78484 231.583 7.83863C231.506 7.89241 231.413 7.91982 231.306 7.91982C231.207 7.91982 231.124 7.89241 231.06 7.83863C230.994 7.78382 230.935 7.69452 230.882 7.56969L230.031 5.69116L229.836 8.14207C229.828 8.3217 229.778 8.45465 229.686 8.54498C229.594 8.63428 229.471 8.67894 229.318 8.67894C229.172 8.67894 229.061 8.63428 228.984 8.54498C228.908 8.45465 228.874 8.3217 228.882 8.14207L229.192 4.18509C229.207 4.02272 229.266 3.89383 229.37 3.79944C229.473 3.70709 229.594 3.66041 229.732 3.66041C229.932 3.66041 230.084 3.78118 230.192 4.0217L231.387 6.75272L233.008 4.02272C233.154 3.78118 233.331 3.66041 233.538 3.66041C233.675 3.66041 233.789 3.70709 233.881 3.80046H233.882ZM228.593 4.12725C228.593 4.43881 228.413 4.59409 228.054 4.59409H226.927L226.65 8.15324C226.643 8.31663 226.585 8.44552 226.473 8.53889C226.363 8.63225 226.229 8.67894 226.076 8.67894C225.923 8.67894 225.799 8.63225 225.703 8.53889C225.607 8.44552 225.563 8.31663 225.571 8.15324L225.857 4.59409H224.743C224.428 4.59409 224.272 4.45403 224.272 4.17393C224.272 3.86237 224.447 3.70709 224.8 3.70709H228.122C228.437 3.70709 228.593 3.84714 228.593 4.12725Z" fill="#AAAAAA"/>
</svg>
