<svg width="176" height="58" viewBox="0 0 176 58" fill="none" xmlns="http://www.w3.org/2000/svg">
<path fill-rule="evenodd" clip-rule="evenodd" d="M71.7799 0L88.528 37.0623L19.9044 58L0 4.03018L71.7799 0ZM45.0211 19.3274C40.5548 21.5009 38.2556 25.246 38.6146 30.2705C38.9667 35.2127 41.7508 38.3796 46.3812 40.0505C50.1114 41.3955 53.9397 41.5783 57.8209 41.0299C58.871 40.8809 59.9001 40.5978 60.8871 40.3534L61.4742 40.2124V34.8699C58.776 35.1262 56.3248 35.6398 53.9027 35.5246C50.3834 35.3577 48.0683 32.902 47.8933 29.747C47.6402 25.1675 51.1225 22.3791 56.2338 23.1768C57.5889 23.3874 58.908 23.8274 60.3021 24.2228L60.9042 24.3877V18.4085C55.4108 16.835 50.0824 16.8638 45.0211 19.3274ZM103.122 32.5176C103.572 32.5176 104.002 32.5792 104.415 32.7024C104.825 32.8255 105.187 33.0759 105.497 33.4534L104.59 34.2749C104.45 34.0593 104.252 33.8855 103.996 33.7544C103.739 33.6232 103.448 33.5577 103.122 33.5577C102.812 33.5577 102.554 33.5974 102.349 33.6789C102.143 33.7603 101.978 33.8646 101.854 33.9918C101.73 34.1189 101.642 34.256 101.592 34.402C101.541 34.5491 101.517 34.6842 101.517 34.8074C101.517 35.154 101.616 35.4203 101.819 35.605C102.021 35.7898 102.271 35.9408 102.569 36.056C102.868 36.1723 103.194 36.2746 103.548 36.368C103.901 36.4613 104.227 36.5905 104.525 36.7554C104.824 36.9223 105.075 37.1458 105.275 37.4269C105.479 37.708 105.579 38.0955 105.579 38.5892C105.579 38.9826 105.503 39.3372 105.353 39.6521C105.2 39.969 104.997 40.2352 104.741 40.4508C104.485 40.6674 104.183 40.8332 103.833 40.9475C103.483 41.0647 103.11 41.1223 102.716 41.1223C102.186 41.1223 101.686 41.0289 101.214 40.8442C100.739 40.6594 100.363 40.3743 100.084 39.9889L101.004 39.2021C101.206 39.5031 101.464 39.7246 101.778 39.8667C102.093 40.0097 102.417 40.0812 102.75 40.0812C102.937 40.0812 103.126 40.0514 103.32 39.9938C103.515 39.9362 103.69 39.8498 103.85 39.7346C104.009 39.6183 104.14 39.4753 104.24 39.3064C104.34 39.1365 104.392 38.9389 104.392 38.7163C104.392 38.4004 104.29 38.159 104.089 37.9931C103.888 37.8282 103.637 37.6892 103.338 37.5759C103.038 37.4657 102.714 37.3574 102.36 37.2531C102.007 37.1498 101.68 37.0047 101.382 36.82C101.082 36.6352 100.832 36.3858 100.632 36.0739C100.429 35.761 100.329 35.3388 100.329 34.8074C100.329 34.5679 100.381 34.3136 100.485 34.0444C100.591 33.7742 100.755 33.5279 100.981 33.3034C101.206 33.0798 101.495 32.8931 101.848 32.7431C102.2 32.5921 102.626 32.5176 103.122 32.5176ZM162.551 35.2931C163.04 35.2931 163.453 35.3785 163.79 35.5474C164.128 35.7163 164.405 35.9388 164.623 36.212C164.841 36.4862 164.997 36.7951 165.095 37.1378C165.191 37.4806 165.24 37.8302 165.24 38.1849V38.5544H160.815C160.815 38.7928 160.868 39.0114 160.974 39.2081C161.077 39.4048 161.216 39.5726 161.386 39.7107C161.558 39.8498 161.755 39.9581 161.979 40.0356C162.205 40.112 162.438 40.1508 162.679 40.1508C163.005 40.1508 163.288 40.0753 163.528 39.9253C163.768 39.7743 163.99 39.5766 164.192 39.3293L164.982 39.9312C164.401 40.6793 163.587 41.0528 162.539 41.0528C162.104 41.0528 161.709 40.9793 161.357 40.8332C161.004 40.6862 160.705 40.4846 160.461 40.2263C160.216 39.968 160.028 39.663 159.895 39.3124C159.765 38.9617 159.698 38.5822 159.698 38.1729C159.698 37.7647 159.77 37.3852 159.913 37.0335C160.058 36.6829 160.255 36.3779 160.507 36.1196C160.759 35.8613 161.06 35.6597 161.409 35.5127C161.759 35.3666 162.139 35.2931 162.551 35.2931ZM150.256 35.2931C150.744 35.2931 151.158 35.3785 151.495 35.5474C151.833 35.7163 152.11 35.9388 152.328 36.212C152.545 36.4862 152.702 36.7951 152.798 37.1378C152.896 37.4806 152.945 37.8302 152.945 38.1849V38.5544H148.52C148.52 38.7928 148.572 39.0114 148.678 39.2081C148.782 39.4048 148.92 39.5726 149.091 39.7107C149.261 39.8498 149.459 39.9581 149.684 40.0356C149.91 40.112 150.142 40.1508 150.383 40.1508C150.709 40.1508 150.992 40.0753 151.233 39.9253C151.473 39.7743 151.695 39.5766 151.896 39.3293L152.688 39.9312C152.106 40.6793 151.291 41.0528 150.244 41.0528C149.808 41.0528 149.414 40.9793 149.062 40.8332C148.709 40.6862 148.41 40.4846 148.166 40.2263C147.921 39.968 147.732 39.663 147.6 39.3124C147.469 38.9617 147.402 38.5822 147.402 38.1729C147.402 37.7647 147.474 37.3852 147.618 37.0335C147.762 36.6829 147.958 36.3779 148.212 36.1196C148.464 35.8613 148.765 35.6597 149.114 35.5127C149.463 35.3666 149.844 35.2931 150.256 35.2931ZM134.501 35.2931C134.99 35.2931 135.403 35.3785 135.741 35.5474C136.079 35.7163 136.356 35.9388 136.573 36.212C136.791 36.4862 136.948 36.7951 137.046 37.1378C137.141 37.4806 137.19 37.8302 137.19 38.1849V38.5544H132.766C132.766 38.7928 132.819 39.0114 132.924 39.2081C133.028 39.4048 133.166 39.5726 133.337 39.7107C133.507 39.8498 133.706 39.9581 133.93 40.0356C134.155 40.112 134.388 40.1508 134.63 40.1508C134.956 40.1508 135.239 40.0753 135.479 39.9253C135.719 39.7743 135.939 39.5766 136.143 39.3293L136.933 39.9312C136.352 40.6793 135.538 41.0528 134.489 41.0528C134.054 41.0528 133.661 40.9793 133.307 40.8332C132.954 40.6862 132.655 40.4846 132.411 40.2263C132.167 39.968 131.978 39.663 131.846 39.3124C131.715 38.9617 131.649 38.5822 131.649 38.1729C131.649 37.7647 131.719 37.3852 131.864 37.0335C132.008 36.6829 132.206 36.3779 132.458 36.1196C132.71 35.8613 133.01 35.6597 133.36 35.5127C133.71 35.3666 134.09 35.2931 134.5 35.2931H134.501ZM128.983 35.304C129.386 35.304 129.773 35.3756 130.141 35.5186C130.511 35.6607 130.831 35.8782 131.102 36.1713L130.31 36.8885C130.116 36.6878 129.913 36.5358 129.7 36.4315C129.485 36.3282 129.231 36.2756 128.936 36.2756C128.649 36.2756 128.399 36.3282 128.186 36.4315C127.971 36.5358 127.793 36.6799 127.649 36.8597C127.506 37.0405 127.397 37.2491 127.324 37.4855C127.249 37.719 127.214 37.9643 127.214 38.2186C127.214 38.473 127.255 38.7153 127.34 38.9418C127.426 39.1703 127.546 39.369 127.702 39.5379C127.857 39.7067 128.043 39.8399 128.26 39.9362C128.478 40.0326 128.723 40.0803 128.995 40.0803C129.289 40.0803 129.541 40.0286 129.75 39.9243C129.96 39.821 130.155 39.668 130.332 39.4673L131.079 40.2074C130.807 40.5084 130.491 40.725 130.129 40.8561C129.769 40.9862 129.386 41.0518 128.983 41.0518C128.555 41.0518 128.165 40.9832 127.813 40.8442C127.459 40.7051 127.155 40.5104 126.899 40.2601C126.643 40.0097 126.444 39.7087 126.305 39.3581C126.165 39.0074 126.095 38.62 126.095 38.1958C126.095 37.7716 126.165 37.3822 126.305 37.0276C126.445 36.6729 126.641 36.368 126.893 36.1137C127.145 35.8593 127.448 35.6607 127.801 35.5186C128.154 35.3756 128.547 35.304 128.983 35.304ZM109.491 35.2931C109.979 35.2931 110.394 35.3785 110.732 35.5474C111.07 35.7163 111.347 35.9388 111.564 36.212C111.781 36.4862 111.939 36.7951 112.036 37.1378C112.132 37.4806 112.181 37.8302 112.181 38.1849V38.5544H107.756C107.756 38.7928 107.808 39.0114 107.913 39.2081C108.018 39.4048 108.155 39.5726 108.327 39.7107C108.497 39.8498 108.695 39.9581 108.92 40.0356C109.145 40.112 109.377 40.1508 109.62 40.1508C109.945 40.1508 110.229 40.0753 110.471 39.9253C110.711 39.7743 110.931 39.5766 111.133 39.3293L111.925 39.9312C111.343 40.6793 110.528 41.0528 109.479 41.0528C109.043 41.0528 108.651 40.9793 108.297 40.8332C107.944 40.6862 107.645 40.4846 107.401 40.2263C107.157 39.968 106.967 39.663 106.836 39.3124C106.704 38.9617 106.638 38.5822 106.638 38.1729C106.638 37.7647 106.709 37.3852 106.854 37.0335C106.997 36.6829 107.195 36.3779 107.448 36.1196C107.7 35.8613 108 35.6597 108.35 35.5127C108.7 35.3666 109.08 35.2931 109.491 35.2931ZM15.8321 18.1353L14.175 18.1393V40.9813H22.8406V34.1944L24.4107 34.1368C26.4358 34.0573 28.1839 33.9411 29.641 33.4981C31.7472 32.8563 33.1793 32.0388 34.7674 30.6212C38.3606 27.4106 37.4706 21.8565 33.2033 19.6145C31.8122 18.8843 30.1891 18.2635 28.648 18.2048C26.0198 18.1045 23.3876 18.0956 20.7104 18.1075L15.8321 18.1353ZM154.751 35.4312L156.404 39.6293L157.988 35.4312H159.105L156.939 40.9147H155.787L153.539 35.4312H154.75H154.751ZM118.295 35.4312L119.948 39.6293L121.532 35.4312H122.649L120.483 40.9147H119.331L117.084 35.4312H118.294H118.295ZM116.165 35.2921C116.335 35.2921 116.491 35.315 116.629 35.3617L116.583 36.4842C116.498 36.4604 116.413 36.4415 116.327 36.4256C116.242 36.4107 116.157 36.4027 116.071 36.4027C115.559 36.4027 115.167 36.5458 114.895 36.8309C114.625 37.116 114.487 37.559 114.487 38.162V40.9137H113.44V35.4312H114.487V36.2756H114.51C114.581 36.1295 114.674 35.9954 114.79 35.8762C114.907 35.757 115.037 35.6547 115.18 35.5703C115.324 35.4848 115.481 35.4173 115.652 35.3676C115.823 35.318 115.993 35.2921 116.165 35.2921ZM167.627 32.1699V40.9137H166.58V32.1699H167.627ZM143.072 32.7252V39.8726H146.856V40.9137H141.954V32.7252H143.072ZM124.699 35.4312V40.9137H123.65V35.4312H124.699ZM176 32.7252V40.9137H174.882V33.9977L173.368 35.3855L172.717 34.6107L175.011 32.7252H176ZM74.1501 17.9893H65.3505V40.8273H74.1501V17.9893ZM109.467 36.1256C109.211 36.1256 108.977 36.1743 108.762 36.2706C108.549 36.367 108.369 36.4921 108.222 36.6461C108.074 36.8011 107.959 36.9719 107.877 37.1617C107.797 37.3494 107.757 37.5362 107.757 37.722H111.064C111.056 37.4905 111.019 37.2789 110.954 37.0862C110.886 36.8935 110.788 36.7256 110.656 36.5825C110.524 36.4395 110.359 36.3282 110.162 36.2478C109.961 36.1663 109.731 36.1256 109.467 36.1256ZM162.527 36.1256C162.27 36.1256 162.036 36.1743 161.823 36.2706C161.609 36.367 161.429 36.4921 161.282 36.6461C161.134 36.8011 161.019 36.9719 160.938 37.1617C160.856 37.3494 160.815 37.5362 160.815 37.722H164.122C164.114 37.4905 164.077 37.2789 164.012 37.0862C163.946 36.8935 163.847 36.7256 163.715 36.5825C163.583 36.4395 163.418 36.3282 163.22 36.2478C163.022 36.1663 162.79 36.1256 162.527 36.1256ZM150.232 36.1256C149.975 36.1256 149.74 36.1743 149.527 36.2706C149.314 36.367 149.133 36.4921 148.986 36.6461C148.838 36.8011 148.724 36.9719 148.642 37.1617C148.56 37.3494 148.52 37.5362 148.52 37.722H151.827C151.819 37.4905 151.782 37.2789 151.717 37.0862C151.65 36.8935 151.551 36.7256 151.42 36.5825C151.287 36.4395 151.123 36.3282 150.925 36.2478C150.725 36.1663 150.495 36.1256 150.232 36.1256ZM134.477 36.1256C134.221 36.1256 133.987 36.1743 133.773 36.2706C133.559 36.367 133.38 36.4921 133.232 36.6461C133.085 36.8011 132.969 36.9719 132.888 37.1617C132.807 37.3494 132.766 37.5362 132.766 37.722H136.073C136.065 37.4905 136.028 37.2789 135.962 37.0862C135.896 36.8935 135.798 36.7256 135.665 36.5825C135.534 36.4395 135.368 36.3282 135.171 36.2478C134.971 36.1663 134.741 36.1256 134.477 36.1256ZM124.174 32.7024C124.382 32.7024 124.563 32.7779 124.716 32.9279C124.867 33.0779 124.942 33.2567 124.942 33.4653C124.942 33.6729 124.867 33.8527 124.716 34.0027C124.563 34.1537 124.382 34.2292 124.174 34.2292C123.964 34.2292 123.783 34.1537 123.632 34.0027C123.48 33.8527 123.405 33.6729 123.405 33.4653C123.405 33.2567 123.48 33.0779 123.632 32.9279C123.783 32.7779 123.964 32.7024 124.174 32.7024ZM27.7269 24.1523C28.2669 24.8933 28.3319 26.4947 27.8869 27.3232C27.0308 28.9195 25.4457 29.0179 23.7346 29.001L22.9066 28.9901V22.9642C24.7867 22.6065 26.6198 22.6334 27.7269 24.1523ZM118.224 17.7618C118.674 17.7618 119.105 17.8234 119.516 17.9466C119.927 18.0697 120.289 18.3201 120.599 18.6976L119.691 19.5191C119.551 19.3035 119.353 19.1297 119.097 18.9986C118.841 18.8674 118.55 18.8019 118.224 18.8019C117.914 18.8019 117.656 18.8426 117.45 18.9231C117.244 19.0045 117.08 19.1088 116.955 19.236C116.831 19.3631 116.745 19.5002 116.693 19.6462C116.643 19.7933 116.617 19.9284 116.617 20.0516C116.617 20.3992 116.718 20.6645 116.919 20.8492C117.122 21.034 117.372 21.185 117.671 21.3002C117.969 21.4165 118.295 21.5198 118.649 21.6122C119.001 21.7055 119.329 21.8347 119.626 22.0006C119.926 22.1665 120.176 22.39 120.377 22.6711C120.58 22.9522 120.68 23.3397 120.68 23.8334C120.68 24.2268 120.605 24.5814 120.453 24.8973C120.303 25.2132 120.098 25.4794 119.843 25.695C119.585 25.9116 119.283 26.0774 118.934 26.1927C118.584 26.3089 118.212 26.3665 117.816 26.3665C117.289 26.3665 116.788 26.2731 116.314 26.0884C115.841 25.9036 115.464 25.6185 115.185 25.2341L116.105 24.4463C116.306 24.7473 116.565 24.9688 116.878 25.1119C117.193 25.2539 117.518 25.3255 117.851 25.3255C118.038 25.3255 118.228 25.2966 118.421 25.238C118.616 25.1804 118.793 25.094 118.951 24.9798C119.111 24.8625 119.241 24.7195 119.341 24.5506C119.443 24.3817 119.493 24.184 119.493 23.9605C119.493 23.6446 119.393 23.4042 119.19 23.2374C118.988 23.0724 118.738 22.9334 118.44 22.8211C118.14 22.7099 117.814 22.6026 117.46 22.4973C117.108 22.394 116.782 22.2489 116.483 22.0642C116.184 21.8794 115.934 21.63 115.733 21.3191C115.531 21.0052 115.429 20.584 115.429 20.0516C115.429 19.8131 115.482 19.5578 115.586 19.2886C115.691 19.0184 115.857 18.7721 116.082 18.5476C116.306 18.324 116.595 18.1373 116.949 17.9873C117.302 17.8363 117.727 17.7618 118.224 17.7618ZM111.751 17.7618C112.201 17.7618 112.631 17.8234 113.042 17.9466C113.454 18.0697 113.815 18.3201 114.126 18.6976L113.219 19.5191C113.078 19.3035 112.881 19.1297 112.625 18.9986C112.367 18.8674 112.076 18.8019 111.751 18.8019C111.441 18.8019 111.182 18.8426 110.977 18.9231C110.771 19.0045 110.606 19.1088 110.483 19.236C110.358 19.3631 110.271 19.5002 110.221 19.6462C110.17 19.7933 110.145 19.9284 110.145 20.0516C110.145 20.3992 110.245 20.6645 110.447 20.8492C110.649 21.034 110.899 21.185 111.197 21.3002C111.496 21.4165 111.822 21.5198 112.176 21.6122C112.528 21.7055 112.856 21.8347 113.153 22.0006C113.453 22.1665 113.703 22.39 113.903 22.6711C114.108 22.9522 114.206 23.3397 114.206 23.8334C114.206 24.2268 114.132 24.5814 113.981 24.8973C113.828 25.2132 113.625 25.4794 113.369 25.695C113.112 25.9116 112.81 26.0774 112.46 26.1927C112.111 26.3089 111.739 26.3665 111.343 26.3665C110.816 26.3665 110.315 26.2731 109.841 26.0884C109.366 25.9036 108.991 25.6185 108.711 25.2341L109.631 24.4463C109.833 24.7473 110.092 24.9688 110.405 25.1119C110.721 25.2539 111.045 25.3255 111.379 25.3255C111.565 25.3255 111.755 25.2966 111.949 25.238C112.143 25.1804 112.319 25.094 112.479 24.9798C112.637 24.8625 112.767 24.7195 112.869 24.5506C112.969 24.3817 113.019 24.184 113.019 23.9605C113.019 23.6446 112.919 23.4042 112.717 23.2374C112.515 23.0724 112.265 22.9334 111.967 22.8211C111.667 22.7099 111.341 22.6026 110.987 22.4973C110.634 22.394 110.309 22.2489 110.008 22.0642C109.709 21.8794 109.459 21.63 109.258 21.3191C109.056 21.0052 108.955 20.584 108.955 20.0516C108.955 19.8131 109.008 19.5578 109.112 19.2886C109.217 19.0184 109.382 18.7721 109.608 18.5476C109.833 18.324 110.123 18.1373 110.477 17.9873C110.829 17.8363 111.254 17.7618 111.751 17.7618ZM129.355 17.7618C129.899 17.7618 130.432 17.8661 130.956 18.0747C131.48 18.2823 131.909 18.6012 132.243 19.0343L131.311 19.7396C131.079 19.4386 130.784 19.2082 130.426 19.0462C130.069 18.8843 129.7 18.8029 129.321 18.8029C128.854 18.8029 128.433 18.8903 128.057 19.0631C127.68 19.237 127.358 19.4734 127.09 19.7744C126.823 20.0754 126.616 20.428 126.467 20.8333C126.321 21.2377 126.247 21.6708 126.247 22.1337C126.247 22.5658 126.317 22.9741 126.457 23.3605C126.597 23.746 126.797 24.0847 127.061 24.3778C127.325 24.6708 127.647 24.9023 128.028 25.0721C128.409 25.241 128.838 25.3264 129.321 25.3264C129.793 25.3264 130.209 25.2301 130.566 25.0374C130.922 24.8447 131.226 24.5745 131.474 24.2278L132.416 24.9331L132.32 25.0523C132.261 25.1208 132.185 25.2023 132.091 25.2976C131.936 25.4556 131.731 25.6135 131.474 25.7715C131.217 25.9294 130.909 26.0685 130.548 26.1877C130.188 26.3069 129.77 26.3665 129.298 26.3665C128.645 26.3665 128.058 26.2433 127.534 25.997C127.009 25.7506 126.564 25.4268 126.194 25.0254C125.825 24.6241 125.544 24.1711 125.35 23.6665C125.156 23.1619 125.06 22.6503 125.06 22.1337C125.06 21.5019 125.164 20.9178 125.374 20.3814C125.582 19.8449 125.875 19.383 126.252 18.9936C126.629 18.6042 127.082 18.3022 127.609 18.0856C128.136 17.8701 128.719 17.7618 129.355 17.7618ZM145.738 19.1376V20.6774H147.24V21.5784H145.738V24.0648C145.738 24.2188 145.742 24.3728 145.75 24.5218C145.757 24.6718 145.786 24.8069 145.837 24.9271C145.886 25.0463 145.965 25.1427 146.07 25.2162C146.174 25.2887 146.328 25.3255 146.529 25.3255C146.653 25.3255 146.781 25.3135 146.914 25.2907C147.045 25.2678 147.166 25.2251 147.274 25.1635V26.1122C147.15 26.1818 146.989 26.2294 146.791 26.2563C146.594 26.2831 146.439 26.297 146.332 26.297C145.928 26.297 145.615 26.2414 145.394 26.1291C145.173 26.0178 145.01 25.8728 144.905 25.696C144.801 25.5182 144.738 25.3195 144.719 25.1C144.699 24.8814 144.689 24.6589 144.689 24.4344V21.5784H143.478V20.6764H144.689V19.1376H145.738ZM170.06 17.4151V26.1579H169.012V25.3731H168.99C168.786 25.6652 168.508 25.8927 168.156 26.0536C167.802 26.2155 167.44 26.297 167.067 26.297C166.64 26.297 166.255 26.2235 165.909 26.0784C165.563 25.9304 165.268 25.7268 165.024 25.4645C164.78 25.2023 164.591 24.8983 164.46 24.5506C164.327 24.2039 164.261 23.8264 164.261 23.4181C164.261 23.0089 164.327 22.6294 164.46 22.2777C164.591 21.9271 164.78 21.6221 165.024 21.3648C165.268 21.1065 165.563 20.9039 165.909 20.7569C166.255 20.6108 166.64 20.5383 167.067 20.5383C167.464 20.5383 167.836 20.6208 168.185 20.7867C168.534 20.9516 168.802 21.1771 168.99 21.4622H169.012V17.4151H170.06ZM160.583 20.5373C161.071 20.5373 161.485 20.6228 161.823 20.7916C162.161 20.9615 162.438 21.183 162.655 21.4572C162.872 21.7304 163.03 22.0393 163.127 22.382C163.223 22.7248 163.272 23.0744 163.272 23.4291V23.7986H158.848C158.848 24.038 158.9 24.2556 159.005 24.4523C159.11 24.649 159.247 24.8168 159.419 24.9549C159.589 25.094 159.787 25.2033 160.012 25.2798C160.237 25.3562 160.469 25.395 160.711 25.395C161.037 25.395 161.32 25.3195 161.561 25.1695C161.801 25.0185 162.022 24.8218 162.224 24.5735L163.016 25.1755C162.434 25.9235 161.619 26.298 160.571 26.298C160.135 26.298 159.743 26.2235 159.389 26.0774C159.036 25.9304 158.737 25.7298 158.493 25.4715C158.249 25.2132 158.059 24.9072 157.928 24.5576C157.796 24.2059 157.73 23.8264 157.73 23.4172C157.73 23.0099 157.801 22.6294 157.946 22.2777C158.089 21.9271 158.287 21.6221 158.54 21.3648C158.792 21.1065 159.092 20.9039 159.442 20.7569C159.791 20.6108 160.171 20.5383 160.583 20.5383V20.5373ZM136.026 20.5373C136.516 20.5373 136.928 20.6228 137.266 20.7916C137.604 20.9615 137.881 21.183 138.098 21.4572C138.316 21.7304 138.473 22.0393 138.571 22.382C138.666 22.7248 138.715 23.0744 138.715 23.4291V23.7986H134.291C134.291 24.038 134.344 24.2556 134.449 24.4523C134.553 24.649 134.691 24.8168 134.862 24.9549C135.033 25.094 135.232 25.2033 135.455 25.2798C135.68 25.3562 135.913 25.395 136.155 25.395C136.481 25.395 136.765 25.3195 137.005 25.1695C137.245 25.0185 137.465 24.8218 137.668 24.5735L138.459 25.1755C137.877 25.9235 137.063 26.298 136.014 26.298C135.579 26.298 135.186 26.2235 134.832 26.0774C134.479 25.9304 134.18 25.7298 133.936 25.4715C133.692 25.2132 133.503 24.9072 133.371 24.5576C133.241 24.2059 133.174 23.8264 133.174 23.4172C133.174 23.0099 133.245 22.6294 133.389 22.2777C133.533 21.9271 133.731 21.6221 133.983 21.3648C134.235 21.1065 134.535 20.9039 134.885 20.7569C135.235 20.6108 135.615 20.5383 136.026 20.5383V20.5373ZM103.448 17.9704C104.03 17.9704 104.541 18.036 104.979 18.1671C105.419 18.2982 105.797 18.4731 106.12 18.6936C106.442 18.9121 106.71 19.1654 106.923 19.4506C107.137 19.7366 107.305 20.0287 107.43 20.3297C107.554 20.6297 107.643 20.9307 107.698 21.2317C107.752 21.5327 107.78 21.8099 107.78 22.0642C107.78 22.5887 107.682 23.0953 107.49 23.586C107.294 24.0748 107.006 24.5099 106.627 24.8923C106.247 25.2738 105.775 25.5808 105.211 25.8122C104.649 26.0437 103.999 26.1589 103.262 26.1589H100.573V17.9704H103.448ZM153.678 17.276C153.795 17.276 153.917 17.28 154.046 17.287C154.174 17.2949 154.312 17.3177 154.459 17.3565L154.343 18.2823C154.241 18.2436 154.146 18.2168 154.051 18.2009C153.958 18.185 153.856 18.178 153.748 18.178C153.554 18.178 153.398 18.2078 153.282 18.2644C153.166 18.324 153.074 18.4055 153.009 18.5138C152.942 18.6211 152.899 18.7502 152.881 18.9012C152.861 19.0512 152.851 19.2231 152.851 19.4158V20.6774H154.099V21.5784H152.84V26.1579H151.792V21.5784H150.605V20.6764H151.792V19.4506C151.792 18.7184 151.934 18.1731 152.217 17.8144C152.5 17.4568 152.987 17.278 153.677 17.278L153.678 17.276ZM156.392 20.6764V26.1589H155.343V20.6764H156.392ZM149.719 20.6764V26.1589H148.672V20.6764H149.719ZM142.699 20.5373C142.869 20.5373 143.025 20.5602 143.164 20.6069L143.118 21.7294C143.033 21.7055 142.948 21.6867 142.862 21.6698C142.777 21.6559 142.692 21.6479 142.605 21.6479C142.093 21.6479 141.701 21.791 141.429 22.0751C141.159 22.3612 141.022 22.8042 141.022 23.4062V26.1579H139.974V20.6764H141.022V21.5208H141.045C141.115 21.3747 141.208 21.2406 141.325 21.1214C141.441 21.0022 141.572 20.8999 141.715 20.8155C141.859 20.73 142.015 20.6625 142.187 20.6128C142.357 20.5622 142.528 20.5373 142.699 20.5373ZM167.196 21.5089C166.916 21.5089 166.664 21.5585 166.438 21.6539C166.214 21.7502 166.023 21.8824 165.868 22.0463C165.713 22.2122 165.592 22.4138 165.507 22.6483C165.422 22.8837 165.38 23.14 165.38 23.4172C165.38 23.6953 165.422 23.9516 165.507 24.187C165.592 24.4215 165.713 24.6221 165.868 24.787C166.023 24.9529 166.214 25.0851 166.438 25.1804C166.664 25.2778 166.916 25.3255 167.196 25.3255C167.475 25.3255 167.727 25.2778 167.952 25.1804C168.176 25.0851 168.368 24.9529 168.522 24.787C168.678 24.6221 168.799 24.4215 168.884 24.187C168.97 23.9516 169.012 23.6943 169.012 23.4172C169.012 23.14 168.97 22.8837 168.884 22.6483C168.799 22.4128 168.678 22.2122 168.522 22.0463C168.368 21.8814 168.176 21.7502 167.952 21.6539C167.727 21.5575 167.475 21.5089 167.196 21.5089ZM103.367 19.0115H101.69V25.1178H103.1C103.573 25.1178 104.02 25.0543 104.444 24.9271C104.867 24.8 105.237 24.6092 105.555 24.3539C105.875 24.1006 106.126 23.7817 106.313 23.4003C106.499 23.0188 106.593 22.5728 106.593 22.0642C106.593 21.8029 106.549 21.4959 106.463 21.1453C106.377 20.7936 106.217 20.4598 105.981 20.1449C105.744 19.827 105.417 19.5608 104.997 19.3403C104.578 19.1207 104.034 19.0115 103.367 19.0115ZM160.559 21.3698C160.303 21.3698 160.068 21.4194 159.854 21.5148C159.641 21.6112 159.461 21.7363 159.313 21.8903C159.166 22.0453 159.051 22.2161 158.969 22.4069C158.888 22.5936 158.848 22.7804 158.848 22.9662H162.155C162.147 22.7347 162.11 22.5231 162.044 22.3304C161.977 22.1377 161.879 21.9698 161.747 21.8267C161.615 21.6837 161.45 21.5724 161.253 21.492C161.053 21.4105 160.823 21.3698 160.559 21.3698ZM136.002 21.3698C135.746 21.3698 135.512 21.4194 135.298 21.5148C135.084 21.6112 134.905 21.7363 134.758 21.8903C134.61 22.0453 134.494 22.2161 134.413 22.4069C134.333 22.5936 134.291 22.7804 134.291 22.9662H137.598C137.59 22.7347 137.553 22.5231 137.488 22.3304C137.421 22.1377 137.323 21.9698 137.19 21.8267C137.06 21.6837 136.893 21.5724 136.696 21.492C136.497 21.4105 136.266 21.3698 136.002 21.3698ZM149.195 17.9466C149.405 17.9466 149.586 18.0221 149.736 18.1721C149.888 18.3231 149.964 18.5019 149.964 18.7095C149.964 18.9181 149.888 19.0979 149.736 19.2479C149.586 19.3979 149.405 19.4734 149.195 19.4734C148.986 19.4734 148.805 19.3979 148.654 19.2479C148.503 19.0979 148.427 18.9181 148.427 18.7095C148.427 18.5019 148.503 18.3231 148.654 18.1721C148.805 18.0221 148.986 17.9466 149.195 17.9466ZM155.867 17.9466C156.077 17.9466 156.257 18.0221 156.409 18.1721C156.559 18.3231 156.635 18.5019 156.635 18.7095C156.635 18.9181 156.559 19.0979 156.409 19.2479C156.257 19.3979 156.077 19.4734 155.867 19.4734C155.657 19.4734 155.477 19.3979 155.326 19.2479C155.175 19.0979 155.098 18.9181 155.098 18.7095C155.098 18.5019 155.175 18.3231 155.326 18.1721C155.477 18.0221 155.657 17.9466 155.867 17.9466ZM69.6718 5.50735C66.4095 5.4994 64.3024 7.44644 64.2794 10.4932C64.2544 13.5329 66.3785 15.5465 69.6127 15.5545C72.905 15.5614 74.9811 13.6313 74.9881 10.5557C74.9951 7.4832 72.923 5.51629 69.6718 5.50735Z" fill="#AAAAAA"/>
</svg>
